<svg xmlns="http://www.w3.org/2000/svg" version="1.1" xmlns:xlink="http://www.w3.org/1999/xlink" viewBox="0 0 17.255222841873685 13.672575039902277"><g transform="matrix(1,0,0,1,1.2782493486419213,10.367090616260356)"><g clip-path="url(#SvgjsClipPath1001)"><g clip-path="url(#SvgjsClipPath1000f84ffe2f-3e47-4eef-b939-cb5642330660)"><path d=" M 4.450879800793021 -8.721466643971041 C 4.447277466946737 -8.78419585651529 4.418575072001136 -8.842834137759564 4.371244670980513 -8.884159239753256 L 4.109172698324839 -9.088841267618436 L 4.109172698324839 -0.7287321770711568 L 4.451406314047982 -0.7287321770711568 Z" fill="#ff6b00" transform="matrix(1,0,0,1,0,0)" fill-rule="nonzero"></path></g><g clip-path="url(#SvgjsClipPath1000f84ffe2f-3e47-4eef-b939-cb5642330660)"><path d=" M 4.945539003826649 -8.438465769430753 C 4.9420838381322785 -8.501240351738376 4.913642419963128 -8.560019282621262 4.866562015582842 -8.601684878467951 L 4.604621671240929 -8.806103649705651 L 4.604621671240929 -0.7287321770711568 L 4.94619714539535 -0.7287321770711568 Z" fill="#ff6b00" transform="matrix(1,0,0,1,0,0)" fill-rule="nonzero"></path></g><g clip-path="url(#SvgjsClipPath1000f84ffe2f-3e47-4eef-b939-cb5642330660)"><path d=" M 5.440066578546581 -8.135852276143277 C 5.436702673753932 -8.19857531577672 5.408238808490532 -8.257305757770144 5.361089590302774 -8.298808128552993 L 5.099017617647122 -8.503226899790672 L 5.099017617647122 -0.7287321770711799 L 5.440461463487802 -0.7287321770711799 Z" fill="#ff6b00" transform="matrix(1,0,0,1,0,0)" fill-rule="nonzero"></path></g><g clip-path="url(#SvgjsClipPath1000f84ffe2f-3e47-4eef-b939-cb5642330660)"><path d=" M 5.934725781580254 -7.853114658230492 C 5.93134721011777 -7.915833913824704 5.902885954131991 -7.974558972008687 5.8557487933364465 -8.016070510640187 L 5.593413564053292 -8.220357653564147 L 5.593413564053292 -0.7287321770711799 L 5.935647179776413 -0.7287321770711799 Z" fill="#ff6b00" transform="matrix(1,0,0,1,0,0)" fill-rule="nonzero"></path></g><g clip-path="url(#SvgjsClipPath1000f84ffe2f-3e47-4eef-b939-cb5642330660)"><path d=" M 6.429516612927622 -7.570508668631424 C 6.426094157953444 -7.63321659111997 6.397640700405568 -7.691925558527131 6.3505396246838375 -7.7334645210411415 L 6.088599280341903 -7.937883292278842 L 6.088599280341903 -0.7287321770711799 L 6.430174754496323 -0.7287321770711799 Z" fill="#ff6b00" transform="matrix(1,0,0,1,0,0)" fill-rule="nonzero"></path></g><g clip-path="url(#SvgjsClipPath1000f84ffe2f-3e47-4eef-b939-cb5642330660)"><path d=" M 3.804716408645 -7.01859114912102 L 3.5427760643030655 -6.81404074956958 C 3.4955951323926246 -6.7725069479284725 3.4671282315023544 -6.713722797590055 3.463799076059258 -6.650953268846122 L 3.463799076059258 -0.7276791505612596 L 3.80524292189996 -0.7276791505612596 Z" fill="#ff6b00" transform="matrix(1,0,0,1,0,0)" fill-rule="nonzero"></path></g><g clip-path="url(#SvgjsClipPath1000f84ffe2f-3e47-4eef-b939-cb5642330660)"><path d=" M 3.3101888339250674 -6.736511672776913 L 3.0478536046419125 -6.5320929015392135 C 3.000716443846391 -6.49058136290769 2.9722551878605894 -6.431856304723708 2.9688766163981275 -6.369137049129495 L 2.9688766163981275 -0.7287321770711568 L 3.311110232121248 -0.7287321770711568 Z" fill="#ff6b00" transform="matrix(1,0,0,1,0,0)" fill-rule="nonzero"></path></g><g clip-path="url(#SvgjsClipPath1000f84ffe2f-3e47-4eef-b939-cb5642330660)"><path d=" M 2.8160561441463776 -6.433898179489415 L 2.553984171490703 -6.2292161516242555 C 2.5068228813479485 -6.187722962016373 2.4783564018867104 -6.128987126061373 2.475007183246918 -6.066260299214539 L 2.475007183246918 -0.7287321770711799 L 2.8172407989700385 -0.7287321770711799 Z" fill="#ff6b00" transform="matrix(1,0,0,1,0,0)" fill-rule="nonzero"></path></g><g clip-path="url(#SvgjsClipPath1000f84ffe2f-3e47-4eef-b939-cb5642330660)"><path d=" M 2.3206071712302863 -6.15116056157663 L 2.058666826888352 -5.946741790338929 C 2.0113420233341257 -5.905189972619475 1.9826562505368703 -5.8463959920102315 1.979031697075844 -5.783522681301731 L 1.979031697075844 -0.7289954336986373 L 2.3206071712302863 -0.7289954336986373 Z" fill="#ff6b00" transform="matrix(1,0,0,1,0,0)" fill-rule="nonzero"></path></g><g clip-path="url(#SvgjsClipPath1000f84ffe2f-3e47-4eef-b939-cb5642330660)"><path d=" M 1.8260795965103764 -5.868291315350081 L 1.5641392521684419 -5.664004172426122 C 1.516991334838428 -5.62233429089167 1.4885391863560355 -5.563485763780641 1.4851622639246345 -5.500653435075206 L 1.4851622639246345 -0.7287321770711568 L 1.8266061097653368 -0.7287321770711568 Z" fill="#ff6b00" transform="matrix(1,0,0,1,0,0)" fill-rule="nonzero"></path></g><g clip-path="url(#SvgjsClipPath1000f84ffe2f-3e47-4eef-b939-cb5642330660)"><path d=" M 0.6595894801494556 -0.5926285006643468 L 7.254562883447841 -0.5926285006643468 L 7.254562883447841 -0.5136515124205481 L 0.6595894801494556 -0.5136515124205481 Z" fill="#ff6b00" transform="matrix(1,0,0,1,0,0)" fill-rule="nonzero"></path></g><g clip-path="url(#SvgjsClipPath1000f84ffe2f-3e47-4eef-b939-cb5642330660)"><path d=" M -7.028945520710486e-16 -0.40834886142881643 L 7.913889106969815 -0.40834886142881643 L 7.913889106969815 -0.25 L -7.028945520710486e-16 -0.25 Z" fill="#ff6b00" transform="matrix(1,0,0,1,0,0)" fill-rule="nonzero"></path></g></g><g><path d=" M 0.2964885 1.0464299999999997 L 0.2964885 1.0210619999999997 L 0.456624 0.9576419999999998 L 0.456624 0.08720249999999985 L 0.206115 0.08720249999999985 L 0.09354449999999999 0.3266129999999998 L 0.0681765 0.3266129999999998 L 0.0681765 -2.220446049250313e-16 L 1.0099635 -2.220446049250313e-16 L 1.0099635 0.3266129999999998 L 0.9845955 0.3266129999999998 L 0.8736105 0.08720249999999985 L 0.621516 0.08720249999999985 L 0.621516 0.9576419999999998 L 0.783237 1.0210619999999997 L 0.783237 1.0464299999999997 L 0.2964885 1.0464299999999997 M 1.2383590174511718 1.0464299999999997 L 1.2383590174511718 1.0210619999999997 L 1.366784517451172 0.9576419999999998 L 1.366784517451172 0.08878799999999987 L 1.2383590174511718 0.025367999999999835 L 1.2383590174511718 -2.220446049250313e-16 L 1.6585165174511718 -2.220446049250313e-16 L 1.6585165174511718 0.025367999999999835 L 1.5332620174511717 0.08878799999999987 L 1.5332620174511717 0.46296599999999977 L 2.048549517451172 0.46296599999999977 L 2.048549517451172 0.08878799999999987 L 1.9217095174511718 0.025367999999999835 L 1.9217095174511718 -2.220446049250313e-16 L 2.3418670174511718 -2.220446049250313e-16 L 2.3418670174511718 0.025367999999999835 L 2.213441517451172 0.08878799999999987 L 2.213441517451172 0.9576419999999998 L 2.3418670174511718 1.0210619999999997 L 2.3418670174511718 1.0464299999999997 L 1.9217095174511718 1.0464299999999997 L 1.9217095174511718 1.0210619999999997 L 2.048549517451172 0.9576419999999998 L 2.048549517451172 0.5501684999999998 L 1.5332620174511717 0.5501684999999998 L 1.5332620174511717 0.9576419999999998 L 1.6585165174511718 1.0210619999999997 L 1.6585165174511718 1.0464299999999997 L 1.2383590174511718 1.0464299999999997 M 2.5971943581445314 1.0464299999999997 L 2.5971943581445314 1.0210619999999997 L 2.725619858144531 0.9576419999999998 L 2.725619858144531 0.08878799999999987 L 2.5971943581445314 0.025367999999999835 L 2.5971943581445314 -2.220446049250313e-16 L 3.3931153581445312 -2.220446049250313e-16 L 3.3931153581445312 0.2727059999999998 L 3.3677473581445314 0.2727059999999998 L 3.264689858144531 0.08720249999999985 L 2.892097358144531 0.08720249999999985 L 2.892097358144531 0.46296599999999977 L 3.1552903581445313 0.46296599999999977 L 3.2361508581445313 0.32978399999999986 L 3.261518858144531 0.32978399999999986 L 3.261518858144531 0.6801794999999997 L 3.2361508581445313 0.6801794999999997 L 3.1552903581445313 0.5501684999999998 L 2.892097358144531 0.5501684999999998 L 2.892097358144531 0.9592274999999998 L 3.307498358144531 0.9592274999999998 L 3.412141358144531 0.7499414999999998 L 3.4375093581445313 0.7499414999999998 L 3.4375093581445313 1.0464299999999997 L 2.5971943581445314 1.0464299999999997 M 4.369968198955077 1.0464299999999997 L 4.369968198955077 1.0210619999999997 L 4.530103698955077 0.9576419999999998 L 4.530103698955077 0.08720249999999985 L 4.279594698955077 0.08720249999999985 L 4.167024198955078 0.3266129999999998 L 4.1416561989550775 0.3266129999999998 L 4.1416561989550775 -2.220446049250313e-16 L 5.083443198955077 -2.220446049250313e-16 L 5.083443198955077 0.3266129999999998 L 5.058075198955078 0.3266129999999998 L 4.9470901989550775 0.08720249999999985 L 4.694995698955077 0.08720249999999985 L 4.694995698955077 0.9576419999999998 L 4.856716698955077 1.0210619999999997 L 4.856716698955077 1.0464299999999997 L 4.369968198955077 1.0464299999999997 M 5.31183871640625 1.0464299999999997 L 5.31183871640625 1.0210619999999997 L 5.440264216406249 0.9576419999999998 L 5.440264216406249 0.08878799999999987 L 5.31183871640625 0.025367999999999835 L 5.31183871640625 -2.220446049250313e-16 L 5.752607716406249 -2.220446049250313e-16 Q 5.919085216406249 -2.220446049250313e-16 6.01500796640625 0.06896924999999987 Q 6.11093071640625 0.13793849999999985 6.11093071640625 0.25843649999999985 Q 6.11093071640625 0.3472244999999998 6.05068171640625 0.4154009999999998 Q 5.990432716406249 0.48357749999999977 5.89213171640625 0.5200439999999998 L 6.19179121640625 0.9623984999999997 L 6.29801971640625 1.0210619999999997 L 6.29801971640625 1.0464299999999997 L 6.04275421640625 1.0464299999999997 L 5.73833821640625 0.5644379999999998 L 5.606741716406249 0.5644379999999998 L 5.606741716406249 0.9560564999999998 L 5.72565421640625 1.0210619999999997 L 5.72565421640625 1.0464299999999997 L 5.31183871640625 1.0464299999999997 M 5.7002862164062496 0.08720249999999985 L 5.606741716406249 0.08720249999999985 L 5.606741716406249 0.48040649999999974 L 5.70979921640625 0.48040649999999974 Q 5.80810021640625 0.48040649999999974 5.872312966406249 0.4241212499999998 Q 5.9365257164062495 0.36783599999999983 5.9365257164062495 0.28063349999999976 Q 5.9365257164062495 0.19025999999999976 5.873898466406249 0.13873124999999986 Q 5.81127121640625 0.08720249999999985 5.7002862164062496 0.08720249999999985 M 6.970376136445312 1.0622849999999997 Q 6.848292636445311 1.0622849999999997 6.751577136445312 1.0178909999999997 Q 6.654861636445312 0.9734969999999997 6.600161886445312 0.8783669999999998 Q 6.545462136445312 0.7832369999999997 6.545462136445312 0.6294434999999998 L 6.545462136445312 0.08878799999999987 L 6.417036636445312 0.025367999999999835 L 6.417036636445312 -2.220446049250313e-16 L 6.840365136445312 -2.220446049250313e-16 L 6.840365136445312 0.025367999999999835 L 6.711939636445312 0.08878799999999987 L 6.711939636445312 0.6120029999999999 Q 6.711939636445312 0.7435994999999997 6.753162636445312 0.8204962499999997 Q 6.794385636445312 0.8973929999999998 6.864147636445312 0.9306884999999998 Q 6.933909636445311 0.9639839999999997 7.0211121364453115 0.9639839999999997 Q 7.090874136445311 0.9639839999999997 7.150330386445312 0.9346522499999997 Q 7.209786636445312 0.9053204999999998 7.245460386445312 0.8395222499999998 Q 7.281134136445312 0.7737239999999997 7.281134136445312 0.6674954999999998 L 7.281134136445312 0.08561699999999983 L 7.125755136445312 0.025367999999999835 L 7.125755136445312 -2.220446049250313e-16 L 7.520544636445312 -2.220446049250313e-16 L 7.520544636445312 0.025367999999999835 L 7.392119136445312 0.08720249999999985 L 7.392119136445312 0.6294434999999998 Q 7.392119136445312 0.7832369999999997 7.337419386445312 0.8783669999999998 Q 7.282719636445312 0.9734969999999997 7.187589636445312 1.0178909999999997 Q 7.092459636445311 1.0622849999999997 6.970376136445312 1.0622849999999997 M 7.775871977138672 1.0464299999999997 L 7.775871977138672 1.0210619999999997 L 7.904297477138671 0.9576419999999998 L 7.904297477138671 0.08878799999999987 L 7.775871977138672 0.025367999999999835 L 7.775871977138672 -2.220446049250313e-16 L 8.57179297713867 -2.220446049250313e-16 L 8.57179297713867 0.2727059999999998 L 8.546424977138672 0.2727059999999998 L 8.443367477138672 0.08720249999999985 L 8.070774977138672 0.08720249999999985 L 8.070774977138672 0.46296599999999977 L 8.333967977138672 0.46296599999999977 L 8.414828477138672 0.32978399999999986 L 8.440196477138672 0.32978399999999986 L 8.440196477138672 0.6801794999999997 L 8.414828477138672 0.6801794999999997 L 8.333967977138672 0.5501684999999998 L 8.070774977138672 0.5501684999999998 L 8.070774977138672 0.9592274999999998 L 8.486175977138672 0.9592274999999998 L 8.590818977138671 0.7499414999999998 L 8.616186977138671 0.7499414999999998 L 8.616186977138671 1.0464299999999997 L 7.775871977138672 1.0464299999999997 M 9.347287317949219 1.0464299999999997 L 9.347287317949219 1.0210619999999997 L 9.47571281794922 0.9576419999999998 L 9.47571281794922 0.08878799999999987 L 9.347287317949219 0.025367999999999835 L 9.347287317949219 -2.220446049250313e-16 L 9.773786817949219 -2.220446049250313e-16 Q 9.88001531794922 -2.220446049250313e-16 9.96483956794922 0.026160749999999844 Q 10.04966381794922 0.0523214999999998 10.09802156794922 0.10385024999999981 Q 10.146379317949219 0.15537899999999982 10.146379317949219 0.2346539999999998 Q 10.146379317949219 0.3155144999999998 10.090886817949219 0.3828982499999998 Q 10.035394317949219 0.45028199999999974 9.93075131794922 0.47882099999999983 Q 10.075031817949219 0.4978469999999998 10.156685067949219 0.5668162499999998 Q 10.23833831794922 0.6357854999999998 10.23833831794922 0.7420139999999997 Q 10.23833831794922 0.8292164999999998 10.18284581794922 0.8981857499999998 Q 10.12735331794922 0.9671549999999998 10.03063781794922 1.0067924999999998 Q 9.93392231794922 1.0464299999999997 9.810253317949218 1.0464299999999997 L 9.347287317949219 1.0464299999999997 M 9.72780731794922 0.08720249999999985 L 9.64219031794922 0.08720249999999985 L 9.64219031794922 0.4645514999999998 L 9.735734817949218 0.4645514999999998 Q 9.848305317949219 0.4645514999999998 9.910139817949219 0.4154009999999998 Q 9.971974317949218 0.3662504999999998 9.971974317949218 0.28063349999999976 Q 9.971974317949218 0.08720249999999985 9.72780731794922 0.08720249999999985 M 9.786470817949219 0.5485829999999998 L 9.64219031794922 0.5485829999999998 L 9.64219031794922 0.9592274999999998 L 9.79756931794922 0.9592274999999998 Q 9.919652817949219 0.9592274999999998 9.99020756794922 0.9013567499999997 Q 10.06076231794922 0.8434859999999997 10.06076231794922 0.7531124999999999 Q 10.06076231794922 0.6468839999999998 9.98941481794922 0.5977334999999998 Q 9.91806731794922 0.5485829999999998 9.786470817949219 0.5485829999999998 M 10.999437836132811 1.0622849999999997 Q 10.877354336132813 1.0622849999999997 10.780638836132812 1.0178909999999997 Q 10.683923336132812 0.9734969999999997 10.629223586132813 0.8783669999999998 Q 10.574523836132812 0.7832369999999997 10.574523836132812 0.6294434999999998 L 10.574523836132812 0.08878799999999987 L 10.446098336132811 0.025367999999999835 L 10.446098336132811 -2.220446049250313e-16 L 10.869426836132812 -2.220446049250313e-16 L 10.869426836132812 0.025367999999999835 L 10.741001336132813 0.08878799999999987 L 10.741001336132813 0.6120029999999999 Q 10.741001336132813 0.7435994999999997 10.782224336132812 0.8204962499999997 Q 10.823447336132812 0.8973929999999998 10.893209336132813 0.9306884999999998 Q 10.962971336132812 0.9639839999999997 11.050173836132812 0.9639839999999997 Q 11.119935836132813 0.9639839999999997 11.179392086132813 0.9346522499999997 Q 11.238848336132811 0.9053204999999998 11.274522086132812 0.8395222499999998 Q 11.310195836132813 0.7737239999999997 11.310195836132813 0.6674954999999998 L 11.310195836132813 0.08561699999999983 L 11.154816836132813 0.025367999999999835 L 11.154816836132813 -2.220446049250313e-16 L 11.549606336132811 -2.220446049250313e-16 L 11.549606336132811 0.025367999999999835 L 11.421180836132812 0.08720249999999985 L 11.421180836132812 0.6294434999999998 Q 11.421180836132812 0.7832369999999997 11.366481086132811 0.8783669999999998 Q 11.311781336132812 0.9734969999999997 11.216651336132813 1.0178909999999997 Q 11.121521336132812 1.0622849999999997 10.999437836132811 1.0622849999999997 M 11.81127567682617 1.0464299999999997 L 11.81127567682617 1.0210619999999997 L 11.941286676826172 0.9576419999999998 L 11.941286676826172 0.08878799999999987 L 11.81127567682617 0.025367999999999835 L 11.81127567682617 -2.220446049250313e-16 L 12.23460417682617 -2.220446049250313e-16 L 12.23460417682617 0.025367999999999835 L 12.106178676826172 0.08878799999999987 L 12.106178676826172 0.9576419999999998 L 12.23460417682617 1.0210619999999997 L 12.23460417682617 1.0464299999999997 L 11.81127567682617 1.0464299999999997 M 12.496337773623045 1.0464299999999997 L 12.496337773623045 1.0210619999999997 L 12.624763273623046 0.9576419999999998 L 12.624763273623046 0.08878799999999987 L 12.496337773623045 0.025367999999999835 L 12.496337773623045 -2.220446049250313e-16 L 12.935521273623046 -2.220446049250313e-16 L 12.935521273623046 0.025367999999999835 L 12.791240773623047 0.08878799999999987 L 12.791240773623047 0.9592274999999998 L 13.167004273623046 0.9592274999999998 L 13.279574773623047 0.6865214999999998 L 13.304942773623045 0.6865214999999998 L 13.304942773623045 1.0464299999999997 L 12.496337773623045 1.0464299999999997 M 13.55556935455078 1.0464299999999997 L 13.55556935455078 1.0210619999999997 L 13.68399485455078 0.9576419999999998 L 13.68399485455078 0.08878799999999987 L 13.55556935455078 0.025367999999999835 L 13.55556935455078 -2.220446049250313e-16 L 14.03756135455078 -2.220446049250313e-16 Q 14.21513735455078 -2.220446049250313e-16 14.34039185455078 0.06183449999999979 Q 14.465646354550781 0.1236689999999998 14.531444604550781 0.23148299999999977 Q 14.59724285455078 0.33929699999999985 14.59724285455078 0.4756499999999998 Q 14.59724285455078 0.5993189999999997 14.55443435455078 0.7039619999999998 Q 14.51162585455078 0.8086049999999998 14.434729104550781 0.8847089999999997 Q 14.35783235455078 0.9608129999999997 14.253982104550781 1.0036214999999997 Q 14.15013185455078 1.0464299999999997 14.02646285455078 1.0464299999999997 L 13.55556935455078 1.0464299999999997 M 13.99475285455078 0.08720249999999985 L 13.850472354550782 0.08720249999999985 L 13.850472354550782 0.9592274999999998 L 14.018535354550782 0.9592274999999998 Q 14.145375354550781 0.9592274999999998 14.235748854550781 0.9061132499999998 Q 14.326122354550781 0.8529989999999997 14.375272854550781 0.7554907499999998 Q 14.42442335455078 0.6579824999999998 14.42442335455078 0.5248004999999998 Q 14.42442335455078 0.3932039999999998 14.37448010455078 0.2941102499999998 Q 14.32453685455078 0.19501649999999981 14.22861410455078 0.14110949999999978 Q 14.132691354550781 0.08720249999999985 13.99475285455078 0.08720249999999985" fill="#000000" fill-rule="nonzero"></path></g><g><path d=" M 0.04875 2.0197350749999994 L 0.04875 2.0077350749999994 L 0.10875 1.9777350749999993 L 0.10875 1.5667350749999993 L 0.04875 1.5367350749999993 L 0.04875 1.5247350749999993 L 0.40800000000000003 1.5247350749999993 L 0.40800000000000003 1.6537350749999993 L 0.396 1.6537350749999993 L 0.34950000000000003 1.5659850749999995 L 0.17625 1.5659850749999995 L 0.17625 1.7437350749999994 L 0.29625 1.7437350749999994 L 0.33375 1.6814850749999994 L 0.34575 1.6814850749999994 L 0.34575 1.8457350749999994 L 0.33375 1.8457350749999994 L 0.29625 1.7849850749999994 L 0.17625 1.7849850749999994 L 0.17625 1.9777350749999993 L 0.24375 2.0077350749999994 L 0.24375 2.0197350749999994 L 0.04875 2.0197350749999994 M 0.76388525390625 2.027235074999999 Q 0.7098852539062499 2.027235074999999 0.66451025390625 2.0081100749999994 Q 0.6191352539062499 1.9889850749999993 0.58538525390625 1.9548600749999994 Q 0.5516352539062499 1.9207350749999994 0.53288525390625 1.8742350749999994 Q 0.5141352539062499 1.8277350749999994 0.5141352539062499 1.7722350749999993 Q 0.5141352539062499 1.7167350749999994 0.53288525390625 1.6702350749999995 Q 0.5516352539062499 1.6237350749999995 0.58538525390625 1.5896100749999993 Q 0.6191352539062499 1.5554850749999993 0.66451025390625 1.5363600749999993 Q 0.7098852539062499 1.5172350749999994 0.76388525390625 1.5172350749999994 Q 0.81788525390625 1.5172350749999994 0.86363525390625 1.5363600749999993 Q 0.9093852539062499 1.5554850749999993 0.9431352539062499 1.5896100749999993 Q 0.9768852539062499 1.6237350749999995 0.99563525390625 1.6702350749999995 Q 1.01438525390625 1.7167350749999994 1.01438525390625 1.7722350749999993 Q 1.01438525390625 1.8277350749999994 0.99563525390625 1.8742350749999994 Q 0.9768852539062499 1.9207350749999994 0.9431352539062499 1.9548600749999994 Q 0.9093852539062499 1.9889850749999993 0.86363525390625 2.0081100749999994 Q 0.81788525390625 2.027235074999999 0.76388525390625 2.027235074999999 M 0.7796352539062499 1.9897350749999994 Q 0.8276352539062499 1.9897350749999994 0.86401025390625 1.9657350749999993 Q 0.90038525390625 1.9417350749999993 0.9210102539062499 1.8982350749999994 Q 0.9416352539062499 1.8547350749999993 0.9416352539062499 1.7954850749999993 Q 0.9416352539062499 1.7227350749999994 0.91613525390625 1.6683600749999994 Q 0.8906352539062499 1.6139850749999993 0.84751025390625 1.5839850749999993 Q 0.8043852539062499 1.5539850749999995 0.7511352539062499 1.5539850749999995 Q 0.7031352539062499 1.5539850749999995 0.6660102539062499 1.5776100749999995 Q 0.6288852539062499 1.6012350749999995 0.6078852539062499 1.6447350749999994 Q 0.5868852539062499 1.6882350749999993 0.5868852539062499 1.7474850749999993 Q 0.5868852539062499 1.8202350749999994 0.61276025390625 1.8749850749999994 Q 0.6386352539062499 1.9297350749999993 0.68213525390625 1.9597350749999993 Q 0.7256352539062499 1.9897350749999994 0.7796352539062499 1.9897350749999994 M 1.3642580566406248 2.027235074999999 Q 1.308008056640625 2.027235074999999 1.2641330566406248 2.0062350749999993 Q 1.220258056640625 1.9852350749999994 1.1947580566406248 1.9413600749999993 Q 1.1692580566406248 1.8974850749999994 1.1692580566406248 1.8277350749999994 L 1.1692580566406248 1.5667350749999993 L 1.109258056640625 1.5367350749999993 L 1.109258056640625 1.5247350749999993 L 1.296758056640625 1.5247350749999993 L 1.296758056640625 1.5367350749999993 L 1.2367580566406249 1.5667350749999993 L 1.2367580566406249 1.8164850749999994 Q 1.2367580566406249 1.8787350749999994 1.256258056640625 1.9154850749999994 Q 1.2757580566406248 1.9522350749999995 1.309133056640625 1.9679850749999994 Q 1.342508056640625 1.9837350749999993 1.383758056640625 1.9837350749999993 Q 1.4167580566406248 1.9837350749999993 1.444883056640625 1.9694850749999995 Q 1.473008056640625 1.9552350749999994 1.489883056640625 1.9244850749999993 Q 1.506758056640625 1.8937350749999995 1.506758056640625 1.8427350749999993 L 1.506758056640625 1.5652350749999995 L 1.431758056640625 1.5367350749999993 L 1.431758056640625 1.5247350749999993 L 1.618508056640625 1.5247350749999993 L 1.618508056640625 1.5367350749999993 L 1.559258056640625 1.5659850749999995 L 1.559258056640625 1.8277350749999994 Q 1.559258056640625 1.8974850749999994 1.5337580566406248 1.9413600749999993 Q 1.508258056640625 1.9852350749999994 1.4643830566406248 2.0062350749999993 Q 1.420508056640625 2.027235074999999 1.3642580566406248 2.027235074999999 M 1.7133988037109371 2.0197350749999994 L 1.7133988037109371 2.0077350749999994 L 1.7733988037109372 1.9777350749999993 L 1.7733988037109372 1.5682350749999994 L 1.7141488037109371 1.5367350749999993 L 1.7141488037109371 1.5247350749999993 L 1.824398803710937 1.5247350749999993 L 2.110898803710937 1.8847350749999994 L 2.110898803710937 1.5652350749999995 L 2.0358988037109373 1.5367350749999993 L 2.0358988037109373 1.5247350749999993 L 2.2226488037109373 1.5247350749999993 L 2.2226488037109373 1.5367350749999993 L 2.1633988037109373 1.5659850749999995 L 2.1633988037109373 2.0234850749999995 L 2.135648803710937 2.0234850749999995 L 1.8258988037109372 1.6327350749999994 L 1.8258988037109372 1.9784850749999994 L 1.9008988037109371 2.0077350749999994 L 1.9008988037109371 2.0197350749999994 L 1.7133988037109371 2.0197350749999994 M 2.31002490234375 2.0197350749999994 L 2.31002490234375 2.0077350749999994 L 2.37002490234375 1.9777350749999993 L 2.37002490234375 1.5667350749999993 L 2.31002490234375 1.5367350749999993 L 2.31002490234375 1.5247350749999993 L 2.5297749023437497 1.5247350749999993 Q 2.6122749023437497 1.5247350749999993 2.6707749023437497 1.5539850749999995 Q 2.7292749023437497 1.5832350749999993 2.7596499023437495 1.6342350749999994 Q 2.79002490234375 1.6852350749999994 2.79002490234375 1.7497350749999994 Q 2.79002490234375 1.8082350749999994 2.77014990234375 1.8577350749999995 Q 2.7502749023437496 1.9072350749999993 2.7142749023437496 1.9432350749999994 Q 2.6782749023437495 1.9792350749999994 2.62989990234375 1.9994850749999993 Q 2.58152490234375 2.0197350749999994 2.5245249023437495 2.0197350749999994 L 2.31002490234375 2.0197350749999994 M 2.51252490234375 1.5659850749999995 L 2.4375249023437497 1.5659850749999995 L 2.4375249023437497 1.9784850749999994 L 2.52377490234375 1.9784850749999994 Q 2.58377490234375 1.9784850749999994 2.62764990234375 1.9533600749999993 Q 2.6715249023437497 1.9282350749999995 2.6951499023437497 1.8821100749999995 Q 2.7187749023437497 1.8359850749999993 2.7187749023437497 1.7729850749999994 Q 2.7187749023437497 1.7107350749999994 2.6947749023437497 1.6638600749999994 Q 2.6707749023437497 1.6169850749999994 2.6246499023437497 1.5914850749999994 Q 2.5785249023437498 1.5659850749999995 2.51252490234375 1.5659850749999995 M 2.845896240234375 2.0197350749999994 L 2.845896240234375 2.0077350749999994 L 2.893896240234375 1.9829850749999993 L 3.0858962402343746 1.5209850749999994 L 3.119646240234375 1.5209850749999994 L 3.3086462402343746 1.9807350749999995 L 3.3588962402343747 2.0077350749999994 L 3.3588962402343747 2.0197350749999994 L 3.1728962402343748 2.0197350749999994 L 3.1728962402343748 2.0077350749999994 L 3.2388962402343746 1.9822350749999993 L 3.1826462402343747 1.8434850749999994 L 3.000396240234375 1.8434850749999994 L 2.9448962402343746 1.9822350749999993 L 3.0078962402343747 2.0077350749999994 L 3.0078962402343747 2.0197350749999994 L 2.845896240234375 2.0197350749999994 M 3.0176462402343747 1.8022350749999994 L 3.166146240234375 1.8022350749999994 L 3.091896240234375 1.6177350749999992 L 3.0176462402343747 1.8022350749999994 M 3.506249267578125 2.0197350749999994 L 3.506249267578125 2.0077350749999994 L 3.5812492675781247 1.9777350749999993 L 3.5812492675781247 1.5659850749999995 L 3.458999267578125 1.5659850749999995 L 3.4079992675781248 1.6762350749999992 L 3.3959992675781248 1.6762350749999992 L 3.3959992675781248 1.5247350749999993 L 3.833999267578125 1.5247350749999993 L 3.833999267578125 1.6762350749999992 L 3.821999267578125 1.6762350749999992 L 3.7709992675781248 1.5659850749999995 L 3.648749267578125 1.5659850749999995 L 3.648749267578125 1.9777350749999993 L 3.7237492675781247 2.0077350749999994 L 3.7237492675781247 2.0197350749999994 L 3.506249267578125 2.0197350749999994 M 3.9213826904296876 2.0197350749999994 L 3.9213826904296876 2.0077350749999994 L 3.981382690429687 1.9777350749999993 L 3.981382690429687 1.5667350749999993 L 3.9213826904296876 1.5367350749999993 L 3.9213826904296876 1.5247350749999993 L 4.108882690429687 1.5247350749999993 L 4.108882690429687 1.5367350749999993 L 4.0488826904296875 1.5667350749999993 L 4.0488826904296875 1.9777350749999993 L 4.108882690429687 2.0077350749999994 L 4.108882690429687 2.0197350749999994 L 3.9213826904296876 2.0197350749999994 M 4.464768676757813 2.027235074999999 Q 4.4107686767578125 2.027235074999999 4.3653936767578125 2.0081100749999994 Q 4.320018676757813 1.9889850749999993 4.286268676757813 1.9548600749999994 Q 4.252518676757813 1.9207350749999994 4.233768676757813 1.8742350749999994 Q 4.215018676757813 1.8277350749999994 4.215018676757813 1.7722350749999993 Q 4.215018676757813 1.7167350749999994 4.233768676757813 1.6702350749999995 Q 4.252518676757813 1.6237350749999995 4.286268676757813 1.5896100749999993 Q 4.320018676757813 1.5554850749999993 4.3653936767578125 1.5363600749999993 Q 4.4107686767578125 1.5172350749999994 4.464768676757813 1.5172350749999994 Q 4.518768676757813 1.5172350749999994 4.564518676757813 1.5363600749999993 Q 4.610268676757813 1.5554850749999993 4.644018676757812 1.5896100749999993 Q 4.677768676757813 1.6237350749999995 4.696518676757813 1.6702350749999995 Q 4.7152686767578125 1.7167350749999994 4.7152686767578125 1.7722350749999993 Q 4.7152686767578125 1.8277350749999994 4.696518676757813 1.8742350749999994 Q 4.677768676757813 1.9207350749999994 4.644018676757812 1.9548600749999994 Q 4.610268676757813 1.9889850749999993 4.564518676757813 2.0081100749999994 Q 4.518768676757813 2.027235074999999 4.464768676757813 2.027235074999999 M 4.4805186767578125 1.9897350749999994 Q 4.5285186767578125 1.9897350749999994 4.564893676757813 1.9657350749999993 Q 4.601268676757813 1.9417350749999993 4.6218936767578125 1.8982350749999994 Q 4.642518676757813 1.8547350749999993 4.642518676757813 1.7954850749999993 Q 4.642518676757813 1.7227350749999994 4.617018676757813 1.6683600749999994 Q 4.591518676757813 1.6139850749999993 4.548393676757813 1.5839850749999993 Q 4.5052686767578125 1.5539850749999995 4.452018676757813 1.5539850749999995 Q 4.404018676757813 1.5539850749999995 4.366893676757813 1.5776100749999995 Q 4.329768676757813 1.6012350749999995 4.308768676757813 1.6447350749999994 Q 4.287768676757813 1.6882350749999993 4.287768676757813 1.7474850749999993 Q 4.287768676757813 1.8202350749999994 4.313643676757813 1.8749850749999994 Q 4.339518676757812 1.9297350749999993 4.383018676757813 1.9597350749999993 Q 4.426518676757813 1.9897350749999994 4.4805186767578125 1.9897350749999994 M 4.813898803710938 2.0197350749999994 L 4.813898803710938 2.0077350749999994 L 4.873898803710938 1.9777350749999993 L 4.873898803710938 1.5682350749999994 L 4.814648803710938 1.5367350749999993 L 4.814648803710938 1.5247350749999993 L 4.924898803710938 1.5247350749999993 L 5.211398803710938 1.8847350749999994 L 5.211398803710938 1.5652350749999995 L 5.136398803710938 1.5367350749999993 L 5.136398803710938 1.5247350749999993 L 5.323148803710938 1.5247350749999993 L 5.323148803710938 1.5367350749999993 L 5.263898803710938 1.5659850749999995 L 5.263898803710938 2.0234850749999995 L 5.236148803710938 2.0234850749999995 L 4.926398803710938 1.6327350749999994 L 4.926398803710938 1.9784850749999994 L 5.001398803710938 2.0077350749999994 L 5.001398803710938 2.0197350749999994 L 4.813898803710938 2.0197350749999994 M 5.567282226562501 2.027235074999999 Q 5.520782226562501 2.027235074999999 5.4885322265625005 2.0186100749999993 Q 5.4562822265625 2.0099850749999995 5.421782226562501 1.9927350749999995 L 5.4142822265625 1.8697350749999995 L 5.426282226562501 1.8697350749999995 L 5.4630322265625 1.9492350749999994 Q 5.490032226562501 1.9717350749999993 5.515532226562501 1.9818600749999993 Q 5.541032226562501 1.9919850749999994 5.567282226562501 1.9919850749999994 Q 5.611532226562501 1.9919850749999994 5.636657226562501 1.9687350749999994 Q 5.661782226562501 1.9454850749999995 5.661782226562501 1.9057350749999993 Q 5.661782226562501 1.8727350749999994 5.6471572265625 1.8539850749999993 Q 5.632532226562501 1.8352350749999995 5.6051572265625005 1.8206100749999994 Q 5.5777822265625 1.8059850749999993 5.540282226562501 1.7872350749999995 Q 5.5050322265625 1.7692350749999994 5.4802822265625 1.7519850749999994 Q 5.4555322265625 1.7347350749999992 5.4427822265625005 1.7118600749999993 Q 5.4300322265625 1.6889850749999993 5.4300322265625 1.6544850749999993 Q 5.4300322265625 1.6289850749999994 5.4424072265625005 1.6046100749999994 Q 5.4547822265625 1.5802350749999994 5.4761572265625 1.5603600749999993 Q 5.497532226562501 1.5404850749999994 5.5241572265625 1.5288600749999994 Q 5.5507822265625 1.5172350749999994 5.5792822265625 1.5172350749999994 Q 5.613782226562501 1.5172350749999994 5.6430322265625 1.5254850749999993 Q 5.6722822265625 1.5337350749999994 5.703032226562501 1.5487350749999993 L 5.7105322265625 1.6687350749999994 L 5.6985322265625005 1.6687350749999994 L 5.6640322265625 1.5899850749999993 Q 5.637782226562501 1.5704850749999995 5.6182822265625 1.5618600749999993 Q 5.5987822265625 1.5532350749999995 5.5732822265625 1.5532350749999995 Q 5.540282226562501 1.5532350749999995 5.518907226562501 1.5757350749999994 Q 5.497532226562501 1.5982350749999994 5.497532226562501 1.6312350749999993 Q 5.497532226562501 1.6694850749999994 5.520782226562501 1.6908600749999994 Q 5.544032226562501 1.7122350749999993 5.5935322265625 1.7362350749999993 Q 5.6392822265625 1.7587350749999993 5.6685322265625 1.7778600749999993 Q 5.6977822265625 1.7969850749999994 5.7120322265625 1.8217350749999994 Q 5.726282226562501 1.8464850749999995 5.726282226562501 1.8847350749999994 Q 5.726282226562501 1.9199850749999994 5.7112822265625 1.9466100749999993 Q 5.6962822265625 1.9732350749999994 5.6726572265625 1.9912350749999994 Q 5.6490322265625 2.0092350749999994 5.6209072265625 2.0182350749999993 Q 5.5927822265625 2.027235074999999 5.567282226562501 2.027235074999999 M 6.25953662109375 2.027235074999999 Q 6.20553662109375 2.027235074999999 6.16016162109375 2.0081100749999994 Q 6.11478662109375 1.9889850749999993 6.081036621093751 1.9548600749999994 Q 6.04728662109375 1.9207350749999994 6.0285366210937505 1.8742350749999994 Q 6.009786621093751 1.8277350749999994 6.009786621093751 1.7722350749999993 Q 6.009786621093751 1.7167350749999994 6.0285366210937505 1.6702350749999995 Q 6.04728662109375 1.6237350749999995 6.081036621093751 1.5896100749999993 Q 6.11478662109375 1.5554850749999993 6.16016162109375 1.5363600749999993 Q 6.20553662109375 1.5172350749999994 6.25953662109375 1.5172350749999994 Q 6.313536621093751 1.5172350749999994 6.359286621093751 1.5363600749999993 Q 6.405036621093751 1.5554850749999993 6.43878662109375 1.5896100749999993 Q 6.4725366210937505 1.6237350749999995 6.49128662109375 1.6702350749999995 Q 6.51003662109375 1.7167350749999994 6.51003662109375 1.7722350749999993 Q 6.51003662109375 1.8277350749999994 6.49128662109375 1.8742350749999994 Q 6.4725366210937505 1.9207350749999994 6.43878662109375 1.9548600749999994 Q 6.405036621093751 1.9889850749999993 6.359286621093751 2.0081100749999994 Q 6.313536621093751 2.027235074999999 6.25953662109375 2.027235074999999 M 6.27528662109375 1.9897350749999994 Q 6.32328662109375 1.9897350749999994 6.359661621093751 1.9657350749999993 Q 6.39603662109375 1.9417350749999993 6.41666162109375 1.8982350749999994 Q 6.437286621093751 1.8547350749999993 6.437286621093751 1.7954850749999993 Q 6.437286621093751 1.7227350749999994 6.411786621093751 1.6683600749999994 Q 6.386286621093751 1.6139850749999993 6.343161621093751 1.5839850749999993 Q 6.30003662109375 1.5539850749999995 6.246786621093751 1.5539850749999995 Q 6.198786621093751 1.5539850749999995 6.16166162109375 1.5776100749999995 Q 6.124536621093751 1.6012350749999995 6.103536621093751 1.6447350749999994 Q 6.082536621093751 1.6882350749999993 6.082536621093751 1.7474850749999993 Q 6.082536621093751 1.8202350749999994 6.108411621093751 1.8749850749999994 Q 6.13428662109375 1.9297350749999993 6.177786621093751 1.9597350749999993 Q 6.221286621093751 1.9897350749999994 6.27528662109375 1.9897350749999994 M 6.612416748046876 2.0197350749999994 L 6.612416748046876 2.0077350749999994 L 6.672416748046875 1.9777350749999993 L 6.672416748046875 1.5667350749999993 L 6.612416748046876 1.5367350749999993 L 6.612416748046876 1.5247350749999993 L 6.971666748046876 1.5247350749999993 L 6.971666748046876 1.6537350749999993 L 6.9596667480468755 1.6537350749999993 L 6.9131667480468755 1.5659850749999995 L 6.739916748046875 1.5659850749999995 L 6.739916748046875 1.7437350749999994 L 6.859916748046875 1.7437350749999994 L 6.897416748046876 1.6814850749999994 L 6.909416748046875 1.6814850749999994 L 6.909416748046875 1.8457350749999994 L 6.897416748046876 1.8457350749999994 L 6.859916748046875 1.7849850749999994 L 6.739916748046875 1.7849850749999994 L 6.739916748046875 1.9777350749999993 L 6.807416748046876 2.0077350749999994 L 6.807416748046876 2.0197350749999994 L 6.612416748046876 2.0197350749999994 M 7.357927001953126 2.0197350749999994 L 7.357927001953126 2.0077350749999994 L 7.432927001953126 1.9777350749999993 L 7.432927001953126 1.5659850749999995 L 7.310677001953126 1.5659850749999995 L 7.259677001953126 1.6762350749999992 L 7.247677001953126 1.6762350749999992 L 7.247677001953126 1.5247350749999993 L 7.685677001953126 1.5247350749999993 L 7.685677001953126 1.6762350749999992 L 7.673677001953125 1.6762350749999992 L 7.622677001953126 1.5659850749999995 L 7.500427001953126 1.5659850749999995 L 7.500427001953126 1.9777350749999993 L 7.575427001953126 2.0077350749999994 L 7.575427001953126 2.0197350749999994 L 7.357927001953126 2.0197350749999994 M 7.769310424804688 2.0197350749999994 L 7.769310424804688 2.0077350749999994 L 7.829310424804688 1.9777350749999993 L 7.829310424804688 1.5667350749999993 L 7.769310424804688 1.5367350749999993 L 7.769310424804688 1.5247350749999993 L 7.9628104248046885 1.5247350749999993 Q 8.041560424804688 1.5247350749999993 8.086935424804688 1.5573600749999994 Q 8.132310424804688 1.5899850749999993 8.132310424804688 1.6469850749999995 Q 8.132310424804688 1.6889850749999993 8.103810424804688 1.7223600749999994 Q 8.075310424804687 1.7557350749999994 8.028060424804687 1.7729850749999994 L 8.170560424804687 1.9807350749999995 L 8.220060424804688 2.0077350749999994 L 8.220060424804688 2.0197350749999994 L 8.112060424804689 2.0197350749999994 L 7.966560424804689 1.7924850749999994 L 7.896810424804688 1.7924850749999994 L 7.896810424804688 1.9769850749999993 L 7.953060424804688 2.0077350749999994 L 7.953060424804688 2.0197350749999994 L 7.769310424804688 2.0197350749999994 M 7.945560424804688 1.5659850749999995 L 7.896810424804688 1.5659850749999995 L 7.896810424804688 1.7512350749999994 L 7.950060424804688 1.7512350749999994 Q 7.997310424804688 1.7512350749999994 8.028435424804687 1.7246100749999993 Q 8.059560424804689 1.6979850749999994 8.059560424804689 1.6567350749999994 Q 8.059560424804689 1.6147350749999994 8.028810424804687 1.5903600749999993 Q 7.998060424804688 1.5659850749999995 7.945560424804688 1.5659850749999995 M 8.506178833007814 2.027235074999999 Q 8.449928833007814 2.027235074999999 8.406053833007814 2.0062350749999993 Q 8.362178833007814 1.9852350749999994 8.336678833007813 1.9413600749999993 Q 8.311178833007814 1.8974850749999994 8.311178833007814 1.8277350749999994 L 8.311178833007814 1.5667350749999993 L 8.251178833007813 1.5367350749999993 L 8.251178833007813 1.5247350749999993 L 8.438678833007813 1.5247350749999993 L 8.438678833007813 1.5367350749999993 L 8.378678833007813 1.5667350749999993 L 8.378678833007813 1.8164850749999994 Q 8.378678833007813 1.8787350749999994 8.398178833007814 1.9154850749999994 Q 8.417678833007812 1.9522350749999995 8.451053833007814 1.9679850749999994 Q 8.484428833007813 1.9837350749999993 8.525678833007813 1.9837350749999993 Q 8.558678833007813 1.9837350749999993 8.586803833007814 1.9694850749999995 Q 8.614928833007813 1.9552350749999994 8.631803833007814 1.9244850749999993 Q 8.648678833007814 1.8937350749999995 8.648678833007814 1.8427350749999993 L 8.648678833007814 1.5652350749999995 L 8.573678833007813 1.5367350749999993 L 8.573678833007813 1.5247350749999993 L 8.760428833007813 1.5247350749999993 L 8.760428833007813 1.5367350749999993 L 8.701178833007813 1.5659850749999995 L 8.701178833007813 1.8277350749999994 Q 8.701178833007813 1.8974850749999994 8.675678833007813 1.9413600749999993 Q 8.650178833007812 1.9852350749999994 8.606303833007813 2.0062350749999993 Q 8.562428833007813 2.027235074999999 8.506178833007814 2.027235074999999 M 9.008319580078126 2.027235074999999 Q 8.961819580078126 2.027235074999999 8.929569580078125 2.0186100749999993 Q 8.897319580078126 2.0099850749999995 8.862819580078126 1.9927350749999995 L 8.855319580078126 1.8697350749999995 L 8.867319580078126 1.8697350749999995 L 8.904069580078126 1.9492350749999994 Q 8.931069580078125 1.9717350749999993 8.956569580078126 1.9818600749999993 Q 8.982069580078125 1.9919850749999994 9.008319580078126 1.9919850749999994 Q 9.052569580078126 1.9919850749999994 9.077694580078125 1.9687350749999994 Q 9.102819580078126 1.9454850749999995 9.102819580078126 1.9057350749999993 Q 9.102819580078126 1.8727350749999994 9.088194580078126 1.8539850749999993 Q 9.073569580078125 1.8352350749999995 9.046194580078126 1.8206100749999994 Q 9.018819580078127 1.8059850749999993 8.981319580078125 1.7872350749999995 Q 8.946069580078126 1.7692350749999994 8.921319580078126 1.7519850749999994 Q 8.896569580078125 1.7347350749999992 8.883819580078125 1.7118600749999993 Q 8.871069580078126 1.6889850749999993 8.871069580078126 1.6544850749999993 Q 8.871069580078126 1.6289850749999994 8.883444580078125 1.6046100749999994 Q 8.895819580078125 1.5802350749999994 8.917194580078126 1.5603600749999993 Q 8.938569580078125 1.5404850749999994 8.965194580078126 1.5288600749999994 Q 8.991819580078126 1.5172350749999994 9.020319580078127 1.5172350749999994 Q 9.054819580078126 1.5172350749999994 9.084069580078125 1.5254850749999993 Q 9.113319580078127 1.5337350749999994 9.144069580078126 1.5487350749999993 L 9.151569580078126 1.6687350749999994 L 9.139569580078126 1.6687350749999994 L 9.105069580078126 1.5899850749999993 Q 9.078819580078125 1.5704850749999995 9.059319580078126 1.5618600749999993 Q 9.039819580078126 1.5532350749999995 9.014319580078126 1.5532350749999995 Q 8.981319580078125 1.5532350749999995 8.959944580078126 1.5757350749999994 Q 8.938569580078125 1.5982350749999994 8.938569580078125 1.6312350749999993 Q 8.938569580078125 1.6694850749999994 8.961819580078126 1.6908600749999994 Q 8.985069580078125 1.7122350749999993 9.034569580078125 1.7362350749999993 Q 9.080319580078125 1.7587350749999993 9.109569580078126 1.7778600749999993 Q 9.138819580078126 1.7969850749999994 9.153069580078126 1.8217350749999994 Q 9.167319580078125 1.8464850749999995 9.167319580078125 1.8847350749999994 Q 9.167319580078125 1.9199850749999994 9.152319580078126 1.9466100749999993 Q 9.137319580078126 1.9732350749999994 9.113694580078127 1.9912350749999994 Q 9.090069580078126 2.0092350749999994 9.061944580078126 2.0182350749999993 Q 9.033819580078125 2.027235074999999 9.008319580078126 2.027235074999999 M 9.353698974609376 2.0197350749999994 L 9.353698974609376 2.0077350749999994 L 9.428698974609375 1.9777350749999993 L 9.428698974609375 1.5659850749999995 L 9.306448974609376 1.5659850749999995 L 9.255448974609376 1.6762350749999992 L 9.243448974609375 1.6762350749999992 L 9.243448974609375 1.5247350749999993 L 9.681448974609376 1.5247350749999993 L 9.681448974609376 1.6762350749999992 L 9.669448974609375 1.6762350749999992 L 9.618448974609375 1.5659850749999995 L 9.496198974609376 1.5659850749999995 L 9.496198974609376 1.9777350749999993 L 9.571198974609375 2.0077350749999994 L 9.571198974609375 2.0197350749999994 L 9.353698974609376 2.0197350749999994" fill="#ff6b00" fill-rule="nonzero"></path></g></g><defs><clipPath id="SvgjsClipPath1001"><path d=" M 0 -9.088841267618436 h 7.913889106969815 v 8.838841267618436 h -7.913889106969815 Z"></path></clipPath><clipPath id="SvgjsClipPath1000f84ffe2f-3e47-4eef-b939-cb5642330660"><path d=" M -7.028945520710486e-16 -9.088841267618436 L 7.913889106969815 -9.088841267618436 L 7.913889106969815 -0.25 L -1.4057891041420973e-15 -0.25 Z"></path></clipPath></defs></svg>