<svg xmlns="http://www.w3.org/2000/svg" version="1.1" xmlns:xlink="http://www.w3.org/1999/xlink" viewBox="0 0 13.175820982544415 5.177835853245565"><g transform="matrix(1,0,0,1,3.983671900477131,2.2666729266227827)"><g clip-path="url(#SvgjsClipPath1001)"><g clip-path="url(#SvgjsClipPath1000b44d27a0-4b64-4c38-aef5-9cc9df92267d)"><path d=" M -1.3811173082015136 -1.4342031818265921 C -1.3826788187862333 -1.4613945343049315 -1.3951205011585062 -1.4868125829200383 -1.415636901172058 -1.504725854407723 L -1.5292377434932893 -1.5934497669187804 L -1.5292377434932893 2.0304228088462972 L -1.380889079487658 2.0304228088462972 Z" fill="#ff6b00" transform="matrix(1,0,0,1,0,0)" fill-rule="nonzero"></path></g><g clip-path="url(#SvgjsClipPath1000b44d27a0-4b64-4c38-aef5-9cc9df92267d)"><path d=" M -1.1666964315349357 -1.3115302481296296 C -1.168194148857633 -1.3387412671266092 -1.180522705124392 -1.3642202834112322 -1.200930738613161 -1.3822811494246257 L -1.3144745237559186 -1.4708909475787553 L -1.3144745237559186 2.0304228088462972 L -1.1664111456426163 2.0304228088462972 Z" fill="#ff6b00" transform="matrix(1,0,0,1,0,0)" fill-rule="nonzero"></path></g><g clip-path="url(#SvgjsClipPath1000b44d27a0-4b64-4c38-aef5-9cc9df92267d)"><path d=" M -0.9523326120468028 -1.1803557948415841 C -0.9537907703308077 -1.207544471536398 -0.9661290567827079 -1.233002469248793 -0.9865669191250275 -1.2509925817796526 L -1.100167761446249 -1.3396023799337724 L -1.100167761446249 2.0304228088462875 L -0.9521614405114107 2.0304228088462875 Z" fill="#ff6b00" transform="matrix(1,0,0,1,0,0)" fill-rule="nonzero"></path></g><g clip-path="url(#SvgjsClipPath1000b44d27a0-4b64-4c38-aef5-9cc9df92267d)"><path d=" M -0.7379117353802056 -1.057796975501559 C -0.7393762512538085 -1.0849840119216052 -0.751713406657117 -1.1104396759037616 -0.7721460424584303 -1.1284337624396175 L -0.8858609991365896 -1.2169865034152831 L -0.8858609991365896 2.0304228088462875 L -0.737512335130968 2.0304228088462875 Z" fill="#ff6b00" transform="matrix(1,0,0,1,0,0)" fill-rule="nonzero"></path></g><g clip-path="url(#SvgjsClipPath1000b44d27a0-4b64-4c38-aef5-9cc9df92267d)"><path d=" M -0.5234338015351638 -0.935295213339988 C -0.524917339679031 -0.9624773371769109 -0.5372511146784538 -0.9879260262590733 -0.5576681086133788 -1.0059320002780563 L -0.6712118937561464 -1.094541798432186 L -0.6712118937561464 2.0304228088462875 L -0.5231485156428444 2.0304228088462875 Z" fill="#ff6b00" transform="matrix(1,0,0,1,0,0)" fill-rule="nonzero"></path></g><g clip-path="url(#SvgjsClipPath1000b44d27a0-4b64-4c38-aef5-9cc9df92267d)"><path d=" M -1.6612109972798295 -0.6960544640416904 L -1.7747547824225969 -0.6073876087090969 C -1.7952063917733179 -0.5893838717836233 -1.8075459940842393 -0.5639025930115664 -1.8089890895008218 -0.5366937645925647 L -1.8089890895008218 2.030879266273999 L -1.6609827685659737 2.030879266273999 Z" fill="#ff6b00" transform="matrix(1,0,0,1,0,0)" fill-rule="nonzero"></path></g><g clip-path="url(#SvgjsClipPath1000b44d27a0-4b64-4c38-aef5-9cc9df92267d)"><path d=" M -1.8755748167679627 -0.573780930593975 L -1.989289773446122 -0.48517113243984533 C -2.0097224092474253 -0.4671770459039797 -2.0220595646507435 -0.4417213819218233 -2.023524080524337 -0.41453434550177715 L -2.023524080524337 2.0304228088462972 L -1.8751754165187153 2.0304228088462972 Z" fill="#ff6b00" transform="matrix(1,0,0,1,0,0)" fill-rule="nonzero"></path></g><g clip-path="url(#SvgjsClipPath1000b44d27a0-4b64-4c38-aef5-9cc9df92267d)"><path d=" M -2.0897674647206945 -0.44260647730591995 L -2.203368307041926 -0.35388256479487223 C -2.2238114022378093 -0.3358964320455946 -2.2361508218710773 -0.3104360962022945 -2.2376026141201413 -0.28324577785680405 L -2.2376026141201413 2.0304228088462875 L -2.0892539501145198 2.0304228088462875 Z" fill="#ff6b00" transform="matrix(1,0,0,1,0,0)" fill-rule="nonzero"></path></g><g clip-path="url(#SvgjsClipPath1000b44d27a0-4b64-4c38-aef5-9cc9df92267d)"><path d=" M -2.3045306844580655 -0.32004765796589485 L -2.4180744696008327 -0.23143785981176523 C -2.438588443269854 -0.2134263134221399 -2.451022920407496 -0.1879407735036709 -2.4525940625713774 -0.16068695851676917 L -2.4525940625713774 2.03030869448937 L -2.3045306844580655 2.03030869448937 Z" fill="#ff6b00" transform="matrix(1,0,0,1,0,0)" fill-rule="nonzero"></path></g><g clip-path="url(#SvgjsClipPath1000b44d27a0-4b64-4c38-aef5-9cc9df92267d)"><path d=" M -2.518894503946189 -0.19743178144739604 L -2.6324382890889564 -0.10887904047173036 C -2.6528755875459664 -0.09081631673301471 -2.6652087951022554 -0.06530713243744701 -2.6666725961671816 -0.03807108199827991 L -2.6666725961671816 2.0304228088462972 L -2.5186662752323334 2.0304228088462972 Z" fill="#ff6b00" transform="matrix(1,0,0,1,0,0)" fill-rule="nonzero"></path></g><g clip-path="url(#SvgjsClipPath1000b44d27a0-4b64-4c38-aef5-9cc9df92267d)"><path d=" M -3.0245352194915203 2.0894199313777646 L -0.16579940692468043 2.0894199313777646 L -0.16579940692468043 2.123654238455985 L -3.0245352194915203 2.123654238455985 Z" fill="#ff6b00" transform="matrix(1,0,0,1,0,0)" fill-rule="nonzero"></path></g><g clip-path="url(#SvgjsClipPath1000b44d27a0-4b64-4c38-aef5-9cc9df92267d)"><path d=" M -3.310448740773129 2.1692999812269464 L 0.1200000000000001 2.1692999812269464 L 0.1200000000000001 2.23793976691878 L -3.310448740773129 2.23793976691878 Z" fill="#ff6b00" transform="matrix(1,0,0,1,0,0)" fill-rule="nonzero"></path></g></g><g><path d=" M 0.1826055 0.6444899999999999 L 0.1826055 0.6288659999999999 L 0.28123200000000004 0.5898059999999999 L 0.28123200000000004 0.05370749999999991 L 0.126945 0.05370749999999991 L 0.057613500000000005 0.20115899999999987 L 0.0419895 0.20115899999999987 L 0.0419895 -1.1102230246251565e-16 L 0.6220305 -1.1102230246251565e-16 L 0.6220305 0.20115899999999987 L 0.6064065000000001 0.20115899999999987 L 0.5380515 0.05370749999999991 L 0.382788 0.05370749999999991 L 0.382788 0.5898059999999999 L 0.482391 0.6288659999999999 L 0.482391 0.6444899999999999 L 0.1826055 0.6444899999999999 M 0.7216263479003907 0.6444899999999999 L 0.7216263479003907 0.6288659999999999 L 0.8007228479003907 0.5898059999999999 L 0.8007228479003907 0.054683999999999844 L 0.7216263479003907 0.01562399999999986 L 0.7216263479003907 -1.1102230246251565e-16 L 0.9803988479003907 -1.1102230246251565e-16 L 0.9803988479003907 0.01562399999999986 L 0.9032553479003906 0.054683999999999844 L 0.9032553479003906 0.2851379999999999 L 1.2206178479003906 0.2851379999999999 L 1.2206178479003906 0.054683999999999844 L 1.1424978479003907 0.01562399999999986 L 1.1424978479003907 -1.1102230246251565e-16 L 1.4012703479003907 -1.1102230246251565e-16 L 1.4012703479003907 0.01562399999999986 L 1.3221738479003906 0.054683999999999844 L 1.3221738479003906 0.5898059999999999 L 1.4012703479003907 0.6288659999999999 L 1.4012703479003907 0.6444899999999999 L 1.1424978479003907 0.6444899999999999 L 1.1424978479003907 0.6288659999999999 L 1.2206178479003906 0.5898059999999999 L 1.2206178479003906 0.33884549999999986 L 0.9032553479003906 0.33884549999999986 L 0.9032553479003906 0.5898059999999999 L 0.9803988479003907 0.6288659999999999 L 0.9803988479003907 0.6444899999999999 L 0.7216263479003907 0.6444899999999999 M 1.5174533452148438 0.6444899999999999 L 1.5174533452148438 0.6288659999999999 L 1.5965498452148439 0.5898059999999999 L 1.5965498452148439 0.054683999999999844 L 1.5174533452148438 0.01562399999999986 L 1.5174533452148438 -1.1102230246251565e-16 L 2.0076563452148437 -1.1102230246251565e-16 L 2.0076563452148437 0.16795799999999989 L 1.9920323452148438 0.16795799999999989 L 1.9285598452148438 0.05370749999999991 L 1.6990823452148438 0.05370749999999991 L 1.6990823452148438 0.2851379999999999 L 1.8611813452148438 0.2851379999999999 L 1.9109828452148439 0.20311199999999985 L 1.926606845214844 0.20311199999999985 L 1.926606845214844 0.41891849999999986 L 1.9109828452148439 0.41891849999999986 L 1.8611813452148438 0.33884549999999986 L 1.6990823452148438 0.33884549999999986 L 1.6990823452148438 0.5907824999999999 L 1.9549253452148438 0.5907824999999999 L 2.019374345214844 0.4618844999999999 L 2.034998345214844 0.4618844999999999 L 2.034998345214844 0.6444899999999999 L 1.5174533452148438 0.6444899999999999 M 2.52715100756836 0.6444899999999999 L 2.52715100756836 0.6288659999999999 L 2.62577750756836 0.5898059999999999 L 2.62577750756836 0.05370749999999991 L 2.47149050756836 0.05370749999999991 L 2.40215900756836 0.20115899999999987 L 2.38653500756836 0.20115899999999987 L 2.38653500756836 -1.1102230246251565e-16 L 2.96657600756836 -1.1102230246251565e-16 L 2.96657600756836 0.20115899999999987 L 2.95095200756836 0.20115899999999987 L 2.88259700756836 0.05370749999999991 L 2.72733350756836 0.05370749999999991 L 2.72733350756836 0.5898059999999999 L 2.8269365075683597 0.6288659999999999 L 2.8269365075683597 0.6444899999999999 L 2.52715100756836 0.6444899999999999 M 3.0661718554687507 0.6444899999999999 L 3.0661718554687507 0.6288659999999999 L 3.1452683554687506 0.5898059999999999 L 3.1452683554687506 0.054683999999999844 L 3.0661718554687507 0.01562399999999986 L 3.0661718554687507 -1.1102230246251565e-16 L 3.3376388554687506 -1.1102230246251565e-16 Q 3.4401713554687507 -1.1102230246251565e-16 3.4992496054687505 0.04247774999999987 Q 3.5583278554687507 0.08495549999999985 3.5583278554687507 0.15916949999999985 Q 3.5583278554687507 0.21385349999999986 3.5212208554687505 0.2558429999999999 Q 3.4841138554687507 0.2978324999999999 3.4235708554687507 0.32029199999999985 L 3.6081293554687504 0.5927354999999999 L 3.6735548554687507 0.6288659999999999 L 3.6735548554687507 0.6444899999999999 L 3.5163383554687506 0.6444899999999999 L 3.3288503554687505 0.3476339999999999 L 3.2478008554687507 0.3476339999999999 L 3.2478008554687507 0.5888294999999999 L 3.3210383554687506 0.6288659999999999 L 3.3210383554687506 0.6444899999999999 L 3.0661718554687507 0.6444899999999999 M 3.3054143554687507 0.05370749999999991 L 3.2478008554687507 0.05370749999999991 L 3.2478008554687507 0.2958794999999999 L 3.3112733554687503 0.2958794999999999 Q 3.3718163554687504 0.2958794999999999 3.4113646054687505 0.26121374999999986 Q 3.4509128554687507 0.22654799999999986 3.4509128554687507 0.1728404999999999 Q 3.4509128554687507 0.11717999999999984 3.4123411054687507 0.08544374999999982 Q 3.3737693554687507 0.05370749999999991 3.3054143554687507 0.05370749999999991 M 4.0465835771484375 0.6542549999999999 Q 3.971393077148438 0.6542549999999999 3.911826577148438 0.6269129999999999 Q 3.8522600771484377 0.5995709999999999 3.818570827148438 0.5409809999999999 Q 3.784881577148438 0.4823909999999999 3.784881577148438 0.38767049999999986 L 3.784881577148438 0.054683999999999844 L 3.705785077148438 0.01562399999999986 L 3.705785077148438 -1.1102230246251565e-16 L 3.966510577148438 -1.1102230246251565e-16 L 3.966510577148438 0.01562399999999986 L 3.887414077148438 0.054683999999999844 L 3.887414077148438 0.3769289999999999 Q 3.887414077148438 0.4579784999999999 3.9128030771484377 0.50533875 Q 3.9381920771484378 0.5526989999999999 3.9811580771484376 0.5732054999999999 Q 4.0241240771484375 0.5937119999999999 4.077831577148438 0.5937119999999999 Q 4.120797577148438 0.5937119999999999 4.157416327148438 0.5756467499999999 Q 4.194035077148438 0.5575815 4.216006327148438 0.5170567499999998 Q 4.237977577148438 0.4765319999999999 4.237977577148438 0.4111064999999999 L 4.237977577148438 0.05273099999999986 L 4.142280577148438 0.01562399999999986 L 4.142280577148438 -1.1102230246251565e-16 L 4.385429077148438 -1.1102230246251565e-16 L 4.385429077148438 0.01562399999999986 L 4.306332577148438 0.05370749999999991 L 4.306332577148438 0.38767049999999986 Q 4.306332577148438 0.4823909999999999 4.272643327148438 0.5409809999999999 Q 4.2389540771484375 0.5995709999999999 4.180364077148438 0.6269129999999999 Q 4.121774077148438 0.6542549999999999 4.0465835771484375 0.6542549999999999 M 4.501612074462891 0.6444899999999999 L 4.501612074462891 0.6288659999999999 L 4.580708574462891 0.5898059999999999 L 4.580708574462891 0.054683999999999844 L 4.501612074462891 0.01562399999999986 L 4.501612074462891 -1.1102230246251565e-16 L 4.991815074462891 -1.1102230246251565e-16 L 4.991815074462891 0.16795799999999989 L 4.976191074462891 0.16795799999999989 L 4.912718574462891 0.05370749999999991 L 4.683241074462891 0.05370749999999991 L 4.683241074462891 0.2851379999999999 L 4.845340074462891 0.2851379999999999 L 4.895141574462891 0.20311199999999985 L 4.910765574462891 0.20311199999999985 L 4.910765574462891 0.41891849999999986 L 4.895141574462891 0.41891849999999986 L 4.845340074462891 0.33884549999999986 L 4.683241074462891 0.33884549999999986 L 4.683241074462891 0.5907824999999999 L 4.939084074462891 0.5907824999999999 L 5.003533074462891 0.4618844999999999 L 5.019157074462891 0.4618844999999999 L 5.019157074462891 0.6444899999999999 L 4.501612074462891 0.6444899999999999 M 5.387294236816406 0.6444899999999999 L 5.387294236816406 0.6288659999999999 L 5.466390736816407 0.5898059999999999 L 5.466390736816407 0.054683999999999844 L 5.387294236816406 0.01562399999999986 L 5.387294236816406 -1.1102230246251565e-16 L 5.649972736816407 -1.1102230246251565e-16 Q 5.715398236816407 -1.1102230246251565e-16 5.7676409868164065 0.016112249999999828 Q 5.819883736816407 0.03222449999999988 5.849666986816406 0.0639607499999999 Q 5.879450236816407 0.09569699999999992 5.879450236816407 0.14452199999999987 Q 5.879450236816407 0.19432349999999987 5.845272736816407 0.23582474999999986 Q 5.811095236816406 0.2773259999999999 5.746646236816407 0.29490299999999986 Q 5.835507736816407 0.30662099999999987 5.885797486816407 0.3490987499999999 Q 5.936087236816407 0.3915764999999999 5.936087236816407 0.4570019999999999 Q 5.936087236816407 0.5107094999999999 5.901909736816407 0.5531872499999999 Q 5.867732236816407 0.5956649999999999 5.808165736816407 0.6200775 Q 5.748599236816407 0.6444899999999999 5.672432236816407 0.6444899999999999 L 5.387294236816406 0.6444899999999999 M 5.621654236816407 0.05370749999999991 L 5.568923236816406 0.05370749999999991 L 5.568923236816406 0.2861144999999999 L 5.626536736816407 0.2861144999999999 Q 5.695868236816406 0.2861144999999999 5.733951736816406 0.2558429999999999 Q 5.772035236816406 0.22557149999999987 5.772035236816406 0.1728404999999999 Q 5.772035236816406 0.05370749999999991 5.621654236816407 0.05370749999999991 M 5.6577847368164065 0.33786899999999986 L 5.568923236816406 0.33786899999999986 L 5.568923236816406 0.5907824999999999 L 5.664620236816407 0.5907824999999999 Q 5.739810736816406 0.5907824999999999 5.783264986816406 0.5551402499999999 Q 5.826719236816406 0.5194979999999999 5.826719236816406 0.4638374999999999 Q 5.826719236816406 0.3984119999999999 5.782776736816406 0.36814049999999987 Q 5.738834236816406 0.33786899999999986 5.6577847368164065 0.33786899999999986 M 6.363772303710937 0.6542549999999999 Q 6.288581803710938 0.6542549999999999 6.229015303710938 0.6269129999999999 Q 6.169448803710938 0.5995709999999999 6.135759553710938 0.5409809999999999 Q 6.102070303710938 0.4823909999999999 6.102070303710938 0.38767049999999986 L 6.102070303710938 0.054683999999999844 L 6.022973803710937 0.01562399999999986 L 6.022973803710937 -1.1102230246251565e-16 L 6.283699303710938 -1.1102230246251565e-16 L 6.283699303710938 0.01562399999999986 L 6.204602803710937 0.054683999999999844 L 6.204602803710937 0.3769289999999999 Q 6.204602803710937 0.4579784999999999 6.229991803710938 0.50533875 Q 6.2553808037109375 0.5526989999999999 6.298346803710937 0.5732054999999999 Q 6.341312803710937 0.5937119999999999 6.395020303710938 0.5937119999999999 Q 6.437986303710938 0.5937119999999999 6.474605053710937 0.5756467499999999 Q 6.511223803710937 0.5575815 6.533195053710937 0.5170567499999998 Q 6.555166303710937 0.4765319999999999 6.555166303710937 0.4111064999999999 L 6.555166303710937 0.05273099999999986 L 6.459469303710938 0.01562399999999986 L 6.459469303710938 -1.1102230246251565e-16 L 6.702617803710938 -1.1102230246251565e-16 L 6.702617803710938 0.01562399999999986 L 6.6235213037109375 0.05370749999999991 L 6.6235213037109375 0.38767049999999986 Q 6.6235213037109375 0.4823909999999999 6.589832053710937 0.5409809999999999 Q 6.556142803710937 0.5995709999999999 6.497552803710938 0.6269129999999999 Q 6.438962803710938 0.6542549999999999 6.363772303710937 0.6542549999999999 M 6.822706801025391 0.6444899999999999 L 6.822706801025391 0.6288659999999999 L 6.902779801025391 0.5898059999999999 L 6.902779801025391 0.054683999999999844 L 6.822706801025391 0.01562399999999986 L 6.822706801025391 -1.1102230246251565e-16 L 7.083432301025391 -1.1102230246251565e-16 L 7.083432301025391 0.01562399999999986 L 7.004335801025391 0.054683999999999844 L 7.004335801025391 0.5898059999999999 L 7.083432301025391 0.6288659999999999 L 7.083432301025391 0.6444899999999999 L 6.822706801025391 0.6444899999999999 M 7.203560873291015 0.6444899999999999 L 7.203560873291015 0.6288659999999999 L 7.282657373291015 0.5898059999999999 L 7.282657373291015 0.054683999999999844 L 7.203560873291015 0.01562399999999986 L 7.203560873291015 -1.1102230246251565e-16 L 7.474051373291015 -1.1102230246251565e-16 L 7.474051373291015 0.01562399999999986 L 7.385189873291015 0.054683999999999844 L 7.385189873291015 0.5907824999999999 L 7.616620373291015 0.5907824999999999 L 7.685951873291016 0.4228244999999999 L 7.701575873291016 0.4228244999999999 L 7.701575873291016 0.6444899999999999 L 7.203560873291015 0.6444899999999999 M 7.814863700683593 0.6444899999999999 L 7.814863700683593 0.6288659999999999 L 7.893960200683593 0.5898059999999999 L 7.893960200683593 0.054683999999999844 L 7.814863700683593 0.01562399999999986 L 7.814863700683593 -1.1102230246251565e-16 L 8.111719700683594 -1.1102230246251565e-16 Q 8.221087700683594 -1.1102230246251565e-16 8.298231200683594 0.038083499999999826 Q 8.375374700683594 0.07616699999999987 8.415899450683593 0.14256899999999983 Q 8.456424200683593 0.20897099999999985 8.456424200683593 0.2929499999999999 Q 8.456424200683593 0.36911699999999986 8.430058700683594 0.4335659999999999 Q 8.403693200683593 0.4980149999999999 8.356332950683592 0.5448869999999999 Q 8.308972700683594 0.5917589999999999 8.245011950683594 0.6181244999999999 Q 8.181051200683592 0.6444899999999999 8.104884200683593 0.6444899999999999 L 7.814863700683593 0.6444899999999999 M 8.085354200683593 0.05370749999999991 L 7.996492700683593 0.05370749999999991 L 7.996492700683593 0.5907824999999999 L 8.100001700683594 0.5907824999999999 Q 8.178121700683594 0.5907824999999999 8.233782200683594 0.5580697499999999 Q 8.289442700683594 0.5253569999999999 8.319714200683594 0.4653022499999999 Q 8.349985700683593 0.40524749999999987 8.349985700683593 0.3232214999999999 Q 8.349985700683593 0.2421719999999999 8.319225950683593 0.18114074999999985 Q 8.288466200683594 0.12010949999999987 8.229387950683593 0.08690849999999983 Q 8.170309700683593 0.05370749999999991 8.085354200683593 0.05370749999999991" fill="#000000" fill-rule="nonzero"></path></g><g></g></g><defs><clipPath id="SvgjsClipPath1001"><path d=" M -3.3104487407731287 -1.5934497669187804 h 3.430448740773129 v 3.8313895338375605 h -3.430448740773129 Z"></path></clipPath><clipPath id="SvgjsClipPath1000b44d27a0-4b64-4c38-aef5-9cc9df92267d"><path d=" M -3.310448740773129 -1.5934497669187804 L 0.1200000000000001 -1.5934497669187804 L 0.1200000000000001 2.23793976691878 L -3.310448740773129 2.23793976691878 Z"></path></clipPath></defs></svg>