<svg xmlns="http://www.w3.org/2000/svg" version="1.1" xmlns:xlink="http://www.w3.org/1999/xlink" viewBox="0 0 12.401473693176438 13.946825689347534"><g transform="matrix(1,0,0,1,1.0955780259112178,12.749247663436316)"><g clip-path="url(#SvgjsClipPath1001)"><g clip-path="url(#SvgjsClipPath100044684188-1b51-46f4-a9b9-216dcb696391)"><path d=" M 5.742422712185788 -11.179691350729389 C 5.737775063940582 -11.260623137466796 5.7007438943726285 -11.336276898766004 5.639679299963842 -11.389593594541452 L 5.3015600706516635 -11.653669637525098 L 5.3015600706516635 -0.8676492400845692 L 5.743102007473208 -0.8676492400845692 Z" fill="#ff6b00" transform="matrix(1,0,0,1,0,0)" fill-rule="nonzero"></path></g><g clip-path="url(#SvgjsClipPath100044684188-1b51-46f4-a9b9-216dcb696391)"><path d=" M 6.380620634714705 -10.814570133742347 C 6.376162859433022 -10.895560455504585 6.339468396097435 -10.971395679731431 6.2787263416020345 -11.02515167284186 L 5.94077693611174 -11.288888068181796 L 5.94077693611174 -0.8676492400845692 L 6.38146975382398 -0.8676492400845692 Z" fill="#ff6b00" transform="matrix(1,0,0,1,0,0)" fill-rule="nonzero"></path></g><g clip-path="url(#SvgjsClipPath100044684188-1b51-46f4-a9b9-216dcb696391)"><path d=" M 7.018648733421825 -10.424145167299022 C 7.014308700855792 -10.505068989888938 6.977585276795671 -10.580841654866243 6.916754440309154 -10.634387058754825 L 6.578635210997005 -10.898123454094732 L 6.578635210997005 -0.8676492400845977 L 7.01915820488739 -0.8676492400845977 Z" fill="#ff6b00" transform="matrix(1,0,0,1,0,0)" fill-rule="nonzero"></path></g><g clip-path="url(#SvgjsClipPath100044684188-1b51-46f4-a9b9-216dcb696391)"><path d=" M 7.656846655950799 -10.05936359795572 C 7.652487700784799 -10.140282538465284 7.615767643154631 -10.216048257375519 7.5549523628381285 -10.269605489411493 L 7.21649348588224 -10.533172060929575 L 7.21649348588224 -0.8676492400845977 L 7.6580354227037555 -0.8676492400845977 Z" fill="#ff6b00" transform="matrix(1,0,0,1,0,0)" fill-rule="nonzero"></path></g><g clip-path="url(#SvgjsClipPath100044684188-1b51-46f4-a9b9-216dcb696391)"><path d=" M 8.295214402301571 -9.694751852434242 C 8.290798829638465 -9.77565617123163 8.254088833373451 -9.851401130191832 8.19332010918893 -9.904993743890046 L 7.855370703698607 -10.168730139229982 L 7.855370703698607 -0.8676492400845977 L 8.296063521410847 -0.8676492400845977 Z" fill="#ff6b00" transform="matrix(1,0,0,1,0,0)" fill-rule="nonzero"></path></g><g clip-path="url(#SvgjsClipPath100044684188-1b51-46f4-a9b9-216dcb696391)"><path d=" M 4.9087575707023685 -8.982680567398619 L 4.5708081652120445 -8.718774348236828 C 4.509936412410198 -8.665188392978092 4.473209071854135 -8.589346434729809 4.468913872099374 -8.50836263295917 L 4.468913872099374 -0.8662906495097573 L 4.909436865989789 -0.8662906495097573 Z" fill="#ff6b00" transform="matrix(1,0,0,1,0,0)" fill-rule="nonzero"></path></g><g clip-path="url(#SvgjsClipPath100044684188-1b51-46f4-a9b9-216dcb696391)"><path d=" M 4.270729471995248 -8.618748117164563 L 3.93227059503936 -8.355011721824628 C 3.8714553147228865 -8.301454489788624 3.8347352570926896 -8.225688770878389 3.830376301926718 -8.144769830368823 L 3.830376301926718 -0.8676492400845692 L 4.271918238748234 -0.8676492400845692 Z" fill="#ff6b00" transform="matrix(1,0,0,1,0,0)" fill-rule="nonzero"></path></g><g clip-path="url(#SvgjsClipPath100044684188-1b51-46f4-a9b9-216dcb696391)"><path d=" M 3.6332108447537226 -8.22832315072121 L 3.295091615441544 -7.964247107737592 C 3.234245203996444 -7.91071354918971 3.1975184071584217 -7.8349339250472845 3.1931973223289027 -7.754005216281788 L 3.1931973223289027 -0.8676492400845977 L 3.634739259150418 -0.8676492400845977 Z" fill="#ff6b00" transform="matrix(1,0,0,1,0,0)" fill-rule="nonzero"></path></g><g clip-path="url(#SvgjsClipPath100044684188-1b51-46f4-a9b9-216dcb696391)"><path d=" M 2.9939939792936467 -7.863541581377906 L 2.6560445738033236 -7.599805186037971 C 2.5949872011168944 -7.546195986849467 2.55797747706229 -7.470341345811942 2.5533011615813774 -7.389223646938457 L 2.5533011615813774 -0.8679888877282789 L 2.9939939792936467 -0.8679888877282789 Z" fill="#ff6b00" transform="matrix(1,0,0,1,0,0)" fill-rule="nonzero"></path></g><g clip-path="url(#SvgjsClipPath100044684188-1b51-46f4-a9b9-216dcb696391)"><path d=" M 2.355965880586556 -7.49859018821272 L 2.0180164750962324 -7.235023616694639 C 1.957187316946446 -7.181262094288464 1.9204790096075997 -7.105337078609353 1.9161221819835619 -7.0242722537733 L 1.9161221819835619 -0.8676492400845692 L 2.356645175873976 -0.8676492400845692 Z" fill="#ff6b00" transform="matrix(1,0,0,1,0,0)" fill-rule="nonzero"></path></g><g clip-path="url(#SvgjsClipPath100044684188-1b51-46f4-a9b9-216dcb696391)"><path d=" M 0.8509871713125571 -0.6920514082870888 L 9.359670117685155 -0.6920514082870888 L 9.359670117685155 -0.5901571151744296 L 0.8509871713125571 -0.5901571151744296 Z" fill="#ff6b00" transform="matrix(1,0,0,1,0,0)" fill-rule="nonzero"></path></g><g clip-path="url(#SvgjsClipPath100044684188-1b51-46f4-a9b9-216dcb696391)"><path d=" M -9.068583787334109e-16 -0.45429805769088283 L 10.210317641354003 -0.45429805769088283 L 10.210317641354003 -0.25 L -9.068583787334109e-16 -0.25 Z" fill="#ff6b00" transform="matrix(1,0,0,1,0,0)" fill-rule="nonzero"></path></g></g><g><path d=" M 0.03375 0.1005 L 0.03375 0.0981 L 0.04725000000000001 0.0921 L 0.04725000000000001 0.0543 L 0.014100000000000001 0.009149999999999991 L 0.0046500000000000005 0.0039000000000000007 L 0.0046500000000000005 0.0015000000000000013 L 0.04335000000000001 0.0015000000000000013 L 0.04335000000000001 0.0039000000000000007 L 0.032400000000000005 0.009300000000000003 L 0.032400000000000005 0.009899999999999992 L 0.05895 0.04605 L 0.08295000000000001 0.010050000000000003 L 0.08295000000000001 0.00945 L 0.07185000000000001 0.0039000000000000007 L 0.07185000000000001 0.0015000000000000013 L 0.10425000000000001 0.0015000000000000013 L 0.10425000000000001 0.0039000000000000007 L 0.09450000000000001 0.008849999999999997 L 0.06285 0.054150000000000004 L 0.06285 0.0921 L 0.07635 0.0981 L 0.07635 0.1005 L 0.03375 0.1005 M 0.1631982421875 0.10200000000000001 Q 0.15239824218750003 0.10200000000000001 0.14317324218750002 0.09817500000000001 Q 0.1339482421875 0.09435 0.1271232421875 0.087525 Q 0.12029824218750002 0.08070000000000001 0.11654824218750001 0.0714 Q 0.11279824218750001 0.0621 0.11279824218750001 0.051000000000000004 Q 0.11279824218750001 0.0399 0.11654824218750001 0.030600000000000002 Q 0.12029824218750002 0.0213 0.1271232421875 0.014475000000000002 Q 0.1339482421875 0.007650000000000004 0.14317324218750002 0.003824999999999995 Q 0.15239824218750003 0 0.1631982421875 0 Q 0.17399824218750004 0 0.18322324218750002 0.003824999999999995 Q 0.1924482421875 0.007650000000000004 0.19927324218750003 0.014475000000000002 Q 0.2060982421875 0.0213 0.20992324218750003 0.030600000000000002 Q 0.21374824218750002 0.0399 0.21374824218750002 0.051000000000000004 Q 0.21374824218750002 0.0621 0.20992324218750003 0.0714 Q 0.2060982421875 0.08070000000000001 0.19927324218750003 0.087525 Q 0.1924482421875 0.09435 0.18322324218750002 0.09817500000000001 Q 0.17399824218750004 0.10200000000000001 0.1631982421875 0.10200000000000001 M 0.1661982421875 0.0945 Q 0.1753482421875 0.0945 0.18224824218750002 0.0897 Q 0.18914824218750004 0.0849 0.19304824218750002 0.0762 Q 0.1969482421875 0.0675 0.1969482421875 0.055650000000000005 Q 0.1969482421875 0.0411 0.19214824218750004 0.030225000000000002 Q 0.1873482421875 0.019349999999999992 0.17909824218750003 0.01335 Q 0.17084824218750003 0.007349999999999995 0.16079824218750002 0.007349999999999995 Q 0.1516482421875 0.007349999999999995 0.1445982421875 0.012075000000000002 Q 0.1375482421875 0.016799999999999995 0.13357324218750002 0.025499999999999995 Q 0.12959824218750002 0.034199999999999994 0.12959824218750002 0.04605 Q 0.12959824218750002 0.0606 0.1344732421875 0.07155 Q 0.13934824218750003 0.0825 0.14767324218750003 0.08850000000000001 Q 0.15599824218750002 0.0945 0.1661982421875 0.0945 M 0.2833491943359375 0.10200000000000001 Q 0.2717991943359375 0.10200000000000001 0.26264919433593753 0.09780000000000001 Q 0.2534991943359375 0.0936 0.2483241943359375 0.08460000000000001 Q 0.2431491943359375 0.0756 0.2431491943359375 0.06105 L 0.2431491943359375 0.009899999999999992 L 0.23099919433593752 0.0039000000000000007 L 0.23099919433593752 0.0015000000000000013 L 0.2710491943359375 0.0015000000000000013 L 0.2710491943359375 0.0039000000000000007 L 0.2588991943359375 0.009899999999999992 L 0.2588991943359375 0.0594 Q 0.2588991943359375 0.07185 0.2627991943359375 0.079125 Q 0.26669919433593753 0.0864 0.2732991943359375 0.08955 Q 0.2798991943359375 0.0927 0.2881491943359375 0.0927 Q 0.2947491943359375 0.0927 0.30037419433593754 0.089925 Q 0.30599919433593753 0.08715 0.3093741943359375 0.080925 Q 0.3127491943359375 0.0747 0.3127491943359375 0.06465000000000001 L 0.3127491943359375 0.009599999999999997 L 0.2980491943359375 0.0039000000000000007 L 0.2980491943359375 0.0015000000000000013 L 0.3353991943359375 0.0015000000000000013 L 0.3353991943359375 0.0039000000000000007 L 0.3232491943359375 0.009749999999999995 L 0.3232491943359375 0.06105 Q 0.3232491943359375 0.0756 0.31807419433593753 0.08460000000000001 Q 0.3128991943359375 0.0936 0.30389919433593754 0.09780000000000001 Q 0.29489919433593753 0.10200000000000001 0.2833491943359375 0.10200000000000001 M 0.35324604492187506 0.1005 L 0.35324604492187506 0.0981 L 0.36539604492187505 0.0921 L 0.36539604492187505 0.009899999999999992 L 0.35324604492187506 0.0039000000000000007 L 0.35324604492187506 0.0015000000000000013 L 0.3949460449218751 0.0015000000000000013 Q 0.41069604492187506 0.0015000000000000013 0.41977104492187506 0.00802499999999999 Q 0.42884604492187506 0.014549999999999993 0.42884604492187506 0.02595 Q 0.42884604492187506 0.034350000000000006 0.4231460449218751 0.0408 Q 0.41744604492187504 0.04725 0.40814604492187506 0.0507 L 0.43649604492187505 0.09255000000000001 L 0.44654604492187505 0.0981 L 0.44654604492187505 0.1005 L 0.42239604492187505 0.1005 L 0.39359604492187505 0.054900000000000004 L 0.38114604492187504 0.054900000000000004 L 0.38114604492187504 0.09195 L 0.3923960449218751 0.0981 L 0.3923960449218751 0.1005 L 0.35324604492187506 0.1005 M 0.38999604492187506 0.009749999999999995 L 0.38114604492187504 0.009749999999999995 L 0.38114604492187504 0.04695 L 0.3908960449218751 0.04695 Q 0.40019604492187505 0.04695 0.40627104492187505 0.041625 Q 0.41234604492187504 0.0363 0.41234604492187504 0.028050000000000005 Q 0.41234604492187504 0.019500000000000003 0.40642104492187503 0.014624999999999999 Q 0.40049604492187507 0.009749999999999995 0.38999604492187506 0.009749999999999995 M 0.5429963378906251 0.10200000000000001 Q 0.5275463378906251 0.10200000000000001 0.5162963378906251 0.09570000000000001 Q 0.505046337890625 0.08940000000000001 0.4988963378906251 0.07845 Q 0.49274633789062505 0.0675 0.49274633789062505 0.05355 Q 0.49274633789062505 0.04275 0.4969463378906251 0.03315 Q 0.5011463378906251 0.02355 0.508421337890625 0.016049999999999995 Q 0.5156963378906251 0.008550000000000002 0.525146337890625 0.004275000000000001 Q 0.5345963378906251 0 0.545246337890625 0 Q 0.5528963378906251 0 0.5581463378906251 0.0009750000000000036 Q 0.563396337890625 0.0019499999999999934 0.5675213378906251 0.0035250000000000004 Q 0.5716463378906251 0.005099999999999993 0.5758463378906251 0.007199999999999998 L 0.5767463378906251 0.0339 L 0.5740463378906251 0.0339 L 0.5636963378906251 0.014399999999999996 Q 0.5585963378906251 0.010800000000000004 0.5544713378906251 0.009149999999999991 Q 0.550346337890625 0.007499999999999993 0.545246337890625 0.007499999999999993 Q 0.5348963378906251 0.007499999999999993 0.5266463378906251 0.012899999999999995 Q 0.5183963378906251 0.018299999999999997 0.513671337890625 0.027825000000000003 Q 0.508946337890625 0.037349999999999994 0.508946337890625 0.049800000000000004 Q 0.508946337890625 0.06375 0.513521337890625 0.073725 Q 0.518096337890625 0.0837 0.5258963378906251 0.08895 Q 0.5336963378906251 0.0942 0.543146337890625 0.0942 Q 0.5509463378906251 0.0942 0.5562713378906251 0.0921 Q 0.561596337890625 0.09000000000000001 0.5657963378906251 0.08715 L 0.5758463378906251 0.07035 L 0.5783963378906251 0.07035 L 0.576596337890625 0.0945 Q 0.5699963378906251 0.09780000000000001 0.562496337890625 0.0999 Q 0.5549963378906251 0.10200000000000001 0.5429963378906251 0.10200000000000001 M 0.6512940673828126 0.10200000000000001 Q 0.6404940673828126 0.10200000000000001 0.6312690673828125 0.09817500000000001 Q 0.6220440673828126 0.09435 0.6152190673828125 0.087525 Q 0.6083940673828125 0.08070000000000001 0.6046440673828125 0.0714 Q 0.6008940673828126 0.0621 0.6008940673828126 0.051000000000000004 Q 0.6008940673828126 0.0399 0.6046440673828125 0.030600000000000002 Q 0.6083940673828125 0.0213 0.6152190673828125 0.014475000000000002 Q 0.6220440673828126 0.007650000000000004 0.6312690673828125 0.003824999999999995 Q 0.6404940673828126 0 0.6512940673828126 0 Q 0.6620940673828126 0 0.6713190673828126 0.003824999999999995 Q 0.6805440673828126 0.007650000000000004 0.6873690673828126 0.014475000000000002 Q 0.6941940673828125 0.0213 0.6980190673828126 0.030600000000000002 Q 0.7018440673828126 0.0399 0.7018440673828126 0.051000000000000004 Q 0.7018440673828126 0.0621 0.6980190673828126 0.0714 Q 0.6941940673828125 0.08070000000000001 0.6873690673828126 0.087525 Q 0.6805440673828126 0.09435 0.6713190673828126 0.09817500000000001 Q 0.6620940673828126 0.10200000000000001 0.6512940673828126 0.10200000000000001 M 0.6542940673828126 0.0945 Q 0.6634440673828126 0.0945 0.6703440673828126 0.0897 Q 0.6772440673828126 0.0849 0.6811440673828125 0.0762 Q 0.6850440673828125 0.0675 0.6850440673828125 0.055650000000000005 Q 0.6850440673828125 0.0411 0.6802440673828125 0.030225000000000002 Q 0.6754440673828126 0.019349999999999992 0.6671940673828125 0.01335 Q 0.6589440673828125 0.007349999999999995 0.6488940673828125 0.007349999999999995 Q 0.6397440673828125 0.007349999999999995 0.6326940673828125 0.012075000000000002 Q 0.6256440673828125 0.016799999999999995 0.6216690673828126 0.025499999999999995 Q 0.6176940673828125 0.034199999999999994 0.6176940673828125 0.04605 Q 0.6176940673828125 0.0606 0.6225690673828126 0.07155 Q 0.6274440673828126 0.0825 0.6357690673828126 0.08850000000000001 Q 0.6440940673828126 0.0945 0.6542940673828126 0.0945 M 0.7192365966796875 0.1005 L 0.7192365966796875 0.0981 L 0.7312365966796875 0.0921 L 0.7343865966796875 0.009899999999999992 L 0.7214865966796876 0.0039000000000000007 L 0.7214865966796876 0.0015000000000000013 L 0.7513365966796876 0.0015000000000000013 L 0.7849365966796876 0.07905000000000001 L 0.8183865966796876 0.0015000000000000013 L 0.8470365966796876 0.0015000000000000013 L 0.8470365966796876 0.0039000000000000007 L 0.8342865966796876 0.00945 L 0.8368365966796876 0.0921 L 0.8476365966796876 0.0981 L 0.8476365966796876 0.1005 L 0.8105865966796876 0.1005 L 0.8105865966796876 0.0981 L 0.8218365966796876 0.09225 L 0.8203365966796876 0.0189 L 0.7849365966796876 0.10125 L 0.7777365966796875 0.10125 L 0.7426365966796876 0.019799999999999998 L 0.7406865966796876 0.09225 L 0.7531365966796876 0.0981 L 0.7531365966796876 0.1005 L 0.7192365966796875 0.1005 M 0.8648892333984376 0.1005 L 0.8648892333984376 0.0981 L 0.8770392333984376 0.0921 L 0.8770392333984376 0.009899999999999992 L 0.8648892333984376 0.0039000000000000007 L 0.8648892333984376 0.0015000000000000013 L 0.9068892333984376 0.0015000000000000013 Q 0.9245892333984376 0.0015000000000000013 0.9353142333984376 0.007949999999999999 Q 0.9460392333984375 0.014399999999999996 0.9460392333984375 0.02835 Q 0.9460392333984375 0.036599999999999994 0.9404142333984375 0.042975 Q 0.9347892333984376 0.04935 0.9251892333984376 0.053025 Q 0.9155892333984376 0.0567 0.9032892333984376 0.0567 L 0.8927892333984376 0.0567 L 0.8927892333984376 0.0921 L 0.9065892333984376 0.0981 L 0.9065892333984376 0.1005 L 0.8648892333984376 0.1005 M 0.8927892333984376 0.009749999999999995 L 0.8927892333984376 0.04875 L 0.9041892333984376 0.04875 Q 0.9160392333984376 0.04875 0.9227892333984375 0.04335 Q 0.9295392333984376 0.03795 0.9295392333984376 0.029549999999999993 Q 0.9295392333984376 0.019049999999999997 0.9227142333984376 0.014399999999999996 Q 0.9158892333984376 0.009749999999999995 0.9031392333984376 0.009749999999999995 L 0.8927892333984376 0.009749999999999995 M 0.9457403320312501 0.1005 L 0.9457403320312501 0.0981 L 0.9551903320312501 0.09315000000000001 L 0.9937403320312501 0.0007500000000000007 L 1.0019903320312502 0.0007500000000000007 L 1.0400903320312502 0.0927 L 1.0501403320312501 0.0981 L 1.0501403320312501 0.1005 L 1.01054033203125 0.1005 L 1.01054033203125 0.0981 L 1.0237403320312501 0.09285 L 1.01264033203125 0.06585 L 0.9764903320312501 0.06585 L 0.9655403320312501 0.093 L 0.9781403320312502 0.0981 L 0.9781403320312502 0.1005 L 0.9457403320312501 0.1005 M 0.9799403320312501 0.057600000000000005 L 1.0093403320312502 0.057600000000000005 L 0.9946403320312501 0.021449999999999997 L 0.9799403320312501 0.057600000000000005 M 1.062887548828125 0.1005 L 1.062887548828125 0.0981 L 1.0750375488281252 0.0921 L 1.0750375488281252 0.0102 L 1.0630375488281252 0.0039000000000000007 L 1.0630375488281252 0.0015000000000000013 L 1.0865875488281251 0.0015000000000000013 L 1.1440375488281251 0.07215 L 1.1440375488281251 0.009749999999999995 L 1.1285875488281252 0.0039000000000000007 L 1.1285875488281252 0.0015000000000000013 L 1.166537548828125 0.0015000000000000013 L 1.166537548828125 0.0039000000000000007 L 1.154537548828125 0.009749999999999995 L 1.154537548828125 0.10125 L 1.148087548828125 0.10125 L 1.0855375488281251 0.02445 L 1.0855375488281251 0.09225 L 1.100987548828125 0.0981 L 1.100987548828125 0.1005 L 1.062887548828125 0.1005 M 1.208534326171875 0.1005 L 1.208534326171875 0.0981 L 1.2220343261718751 0.0921 L 1.2220343261718751 0.0543 L 1.1888843261718751 0.009149999999999991 L 1.1794343261718752 0.0039000000000000007 L 1.1794343261718752 0.0015000000000000013 L 1.2181343261718751 0.0015000000000000013 L 1.2181343261718751 0.0039000000000000007 L 1.207184326171875 0.009300000000000003 L 1.207184326171875 0.009899999999999992 L 1.2337343261718752 0.04605 L 1.2577343261718752 0.010050000000000003 L 1.2577343261718752 0.00945 L 1.246634326171875 0.0039000000000000007 L 1.246634326171875 0.0015000000000000013 L 1.279034326171875 0.0015000000000000013 L 1.279034326171875 0.0039000000000000007 L 1.2692843261718751 0.008849999999999997 L 1.2376343261718752 0.054150000000000004 L 1.2376343261718752 0.0921 L 1.251134326171875 0.0981 L 1.251134326171875 0.1005 L 1.208534326171875 0.1005 M 1.3294327880859376 0.1005 L 1.3294327880859376 0.0981 L 1.3415827880859377 0.0921 L 1.3415827880859377 0.0102 L 1.3295827880859377 0.0039000000000000007 L 1.3295827880859377 0.0015000000000000013 L 1.3531327880859376 0.0015000000000000013 L 1.4105827880859376 0.07215 L 1.4105827880859376 0.009749999999999995 L 1.3951327880859377 0.0039000000000000007 L 1.3951327880859377 0.0015000000000000013 L 1.4330827880859376 0.0015000000000000013 L 1.4330827880859376 0.0039000000000000007 L 1.4210827880859376 0.009749999999999995 L 1.4210827880859376 0.10125 L 1.4146327880859375 0.10125 L 1.3520827880859376 0.02445 L 1.3520827880859376 0.09225 L 1.3675327880859376 0.0981 L 1.3675327880859376 0.1005 L 1.3294327880859376 0.1005 M 1.441480810546875 0.1005 L 1.441480810546875 0.0981 L 1.450930810546875 0.09315000000000001 L 1.489480810546875 0.0007500000000000007 L 1.4977308105468752 0.0007500000000000007 L 1.5358308105468752 0.0927 L 1.545880810546875 0.0981 L 1.545880810546875 0.1005 L 1.506280810546875 0.1005 L 1.506280810546875 0.0981 L 1.5194808105468751 0.09285 L 1.508380810546875 0.06585 L 1.472230810546875 0.06585 L 1.461280810546875 0.093 L 1.473880810546875 0.0981 L 1.473880810546875 0.1005 L 1.441480810546875 0.1005 M 1.475680810546875 0.057600000000000005 L 1.5050808105468751 0.057600000000000005 L 1.490380810546875 0.021449999999999997 L 1.475680810546875 0.057600000000000005 M 1.55862802734375 0.1005 L 1.55862802734375 0.0981 L 1.57062802734375 0.0921 L 1.57377802734375 0.009899999999999992 L 1.5608780273437501 0.0039000000000000007 L 1.5608780273437501 0.0015000000000000013 L 1.59072802734375 0.0015000000000000013 L 1.6243280273437501 0.07905000000000001 L 1.6577780273437501 0.0015000000000000013 L 1.6864280273437502 0.0015000000000000013 L 1.6864280273437502 0.0039000000000000007 L 1.6736780273437502 0.00945 L 1.67622802734375 0.0921 L 1.6870280273437501 0.0981 L 1.6870280273437501 0.1005 L 1.64997802734375 0.1005 L 1.64997802734375 0.0981 L 1.66122802734375 0.09225 L 1.65972802734375 0.0189 L 1.6243280273437501 0.10125 L 1.61712802734375 0.10125 L 1.5820280273437501 0.019799999999999998 L 1.58007802734375 0.09225 L 1.59252802734375 0.0981 L 1.59252802734375 0.1005 L 1.55862802734375 0.1005 M 1.7042806640625001 0.1005 L 1.7042806640625001 0.0981 L 1.7164306640625002 0.0921 L 1.7164306640625002 0.009899999999999992 L 1.7042806640625001 0.0039000000000000007 L 1.7042806640625001 0.0015000000000000013 L 1.7795806640625003 0.0015000000000000013 L 1.7795806640625003 0.027300000000000005 L 1.7771806640625003 0.027300000000000005 L 1.7674306640625002 0.009749999999999995 L 1.7321806640625002 0.009749999999999995 L 1.7321806640625002 0.0453 L 1.7570806640625003 0.0453 L 1.7647306640625002 0.03269999999999999 L 1.7671306640625002 0.03269999999999999 L 1.7671306640625002 0.06585 L 1.7647306640625002 0.06585 L 1.7570806640625003 0.05355 L 1.7321806640625002 0.05355 L 1.7321806640625002 0.09225 L 1.7714806640625003 0.09225 L 1.7813806640625003 0.07245 L 1.7837806640625002 0.07245 L 1.7837806640625002 0.1005 L 1.7042806640625001 0.1005" fill="#ffffff" fill-rule="nonzero"></path></g><g></g></g><defs><clipPath id="SvgjsClipPath1001"><path d=" M 0 -11.653669637525098 h 10.210317641354003 v 11.403669637525098 h -10.210317641354003 Z"></path></clipPath><clipPath id="SvgjsClipPath100044684188-1b51-46f4-a9b9-216dcb696391"><path d=" M -9.068583787334109e-16 -11.653669637525098 L 10.210317641354003 -11.653669637525098 L 10.210317641354003 -0.25 L -1.8137167574668217e-15 -0.25 Z"></path></clipPath></defs></svg>